G75*
%MOIN*%
%OFA0B0*%
%FSLAX25Y25*%
%IPPOS*%
%LPD*%
%AMOC8*
5,1,8,0,0,1.08239X$1,22.5*
%
%ADD10C,0.00100*%
D10*
X0009493Y0008675D02*
X0017493Y0008675D01*
X0013493Y0004675D02*
X0013493Y0012675D01*
X0009493Y0013675D02*
X0017493Y0013675D01*
X0013493Y0009675D02*
X0013493Y0017675D01*
X0009493Y0018675D02*
X0017493Y0018675D01*
X0013493Y0014675D02*
X0013493Y0022675D01*
X0009493Y0023675D02*
X0017493Y0023675D01*
X0013493Y0019675D02*
X0013493Y0027675D01*
X0009493Y0028675D02*
X0017493Y0028675D01*
X0013493Y0024675D02*
X0013493Y0032675D01*
X0009493Y0033675D02*
X0017493Y0033675D01*
X0013493Y0029675D02*
X0013493Y0037675D01*
X0021243Y0027425D02*
X0021245Y0027549D01*
X0021251Y0027674D01*
X0021261Y0027798D01*
X0021275Y0027921D01*
X0021292Y0028044D01*
X0021314Y0028167D01*
X0021340Y0028289D01*
X0021369Y0028409D01*
X0021403Y0028529D01*
X0021440Y0028648D01*
X0021481Y0028765D01*
X0021525Y0028881D01*
X0021573Y0028996D01*
X0021625Y0029109D01*
X0021681Y0029220D01*
X0021740Y0029330D01*
X0021802Y0029437D01*
X0021868Y0029543D01*
X0021937Y0029646D01*
X0022010Y0029747D01*
X0022086Y0029846D01*
X0022164Y0029942D01*
X0022246Y0030036D01*
X0022331Y0030127D01*
X0022418Y0030216D01*
X0022509Y0030301D01*
X0022602Y0030384D01*
X0022698Y0030463D01*
X0022796Y0030539D01*
X0022896Y0030613D01*
X0022999Y0030683D01*
X0023104Y0030749D01*
X0023211Y0030813D01*
X0023320Y0030873D01*
X0023431Y0030929D01*
X0023543Y0030982D01*
X0023658Y0031031D01*
X0023773Y0031077D01*
X0023891Y0031118D01*
X0024009Y0031157D01*
X0024129Y0031191D01*
X0024249Y0031221D01*
X0024371Y0031248D01*
X0024493Y0031270D01*
X0024616Y0031289D01*
X0024739Y0031304D01*
X0024863Y0031315D01*
X0024988Y0031322D01*
X0025112Y0031325D01*
X0025236Y0031324D01*
X0025361Y0031319D01*
X0025485Y0031310D01*
X0025608Y0031297D01*
X0025732Y0031280D01*
X0025854Y0031260D01*
X0025976Y0031235D01*
X0026097Y0031206D01*
X0026217Y0031174D01*
X0026336Y0031138D01*
X0026454Y0031098D01*
X0026571Y0031054D01*
X0026686Y0031007D01*
X0026799Y0030956D01*
X0026911Y0030901D01*
X0027021Y0030843D01*
X0027129Y0030782D01*
X0027235Y0030717D01*
X0027339Y0030648D01*
X0027440Y0030577D01*
X0027540Y0030502D01*
X0027637Y0030424D01*
X0027731Y0030343D01*
X0027823Y0030259D01*
X0027912Y0030172D01*
X0027998Y0030082D01*
X0028081Y0029990D01*
X0028161Y0029895D01*
X0028239Y0029797D01*
X0028313Y0029697D01*
X0028384Y0029595D01*
X0028451Y0029491D01*
X0028515Y0029384D01*
X0028576Y0029275D01*
X0028633Y0029165D01*
X0028687Y0029053D01*
X0028737Y0028939D01*
X0028784Y0028824D01*
X0028826Y0028707D01*
X0028865Y0028589D01*
X0028901Y0028469D01*
X0028932Y0028349D01*
X0028959Y0028228D01*
X0028983Y0028106D01*
X0029003Y0027983D01*
X0029019Y0027859D01*
X0029031Y0027736D01*
X0029039Y0027612D01*
X0029043Y0027487D01*
X0029043Y0027363D01*
X0029039Y0027238D01*
X0029031Y0027114D01*
X0029019Y0026991D01*
X0029003Y0026867D01*
X0028983Y0026744D01*
X0028959Y0026622D01*
X0028932Y0026501D01*
X0028901Y0026381D01*
X0028865Y0026261D01*
X0028826Y0026143D01*
X0028784Y0026026D01*
X0028737Y0025911D01*
X0028687Y0025797D01*
X0028633Y0025685D01*
X0028576Y0025575D01*
X0028515Y0025466D01*
X0028451Y0025359D01*
X0028384Y0025255D01*
X0028313Y0025153D01*
X0028239Y0025053D01*
X0028161Y0024955D01*
X0028081Y0024860D01*
X0027998Y0024768D01*
X0027912Y0024678D01*
X0027823Y0024591D01*
X0027731Y0024507D01*
X0027637Y0024426D01*
X0027540Y0024348D01*
X0027440Y0024273D01*
X0027339Y0024202D01*
X0027235Y0024133D01*
X0027129Y0024068D01*
X0027021Y0024007D01*
X0026911Y0023949D01*
X0026799Y0023894D01*
X0026686Y0023843D01*
X0026571Y0023796D01*
X0026454Y0023752D01*
X0026336Y0023712D01*
X0026217Y0023676D01*
X0026097Y0023644D01*
X0025976Y0023615D01*
X0025854Y0023590D01*
X0025732Y0023570D01*
X0025608Y0023553D01*
X0025485Y0023540D01*
X0025361Y0023531D01*
X0025236Y0023526D01*
X0025112Y0023525D01*
X0024988Y0023528D01*
X0024863Y0023535D01*
X0024739Y0023546D01*
X0024616Y0023561D01*
X0024493Y0023580D01*
X0024371Y0023602D01*
X0024249Y0023629D01*
X0024129Y0023659D01*
X0024009Y0023693D01*
X0023891Y0023732D01*
X0023773Y0023773D01*
X0023658Y0023819D01*
X0023543Y0023868D01*
X0023431Y0023921D01*
X0023320Y0023977D01*
X0023211Y0024037D01*
X0023104Y0024101D01*
X0022999Y0024167D01*
X0022896Y0024237D01*
X0022796Y0024311D01*
X0022698Y0024387D01*
X0022602Y0024466D01*
X0022509Y0024549D01*
X0022418Y0024634D01*
X0022331Y0024723D01*
X0022246Y0024814D01*
X0022164Y0024908D01*
X0022086Y0025004D01*
X0022010Y0025103D01*
X0021937Y0025204D01*
X0021868Y0025307D01*
X0021802Y0025413D01*
X0021740Y0025520D01*
X0021681Y0025630D01*
X0021625Y0025741D01*
X0021573Y0025854D01*
X0021525Y0025969D01*
X0021481Y0026085D01*
X0021440Y0026202D01*
X0021403Y0026321D01*
X0021369Y0026441D01*
X0021340Y0026561D01*
X0021314Y0026683D01*
X0021292Y0026806D01*
X0021275Y0026929D01*
X0021261Y0027052D01*
X0021251Y0027176D01*
X0021245Y0027301D01*
X0021243Y0027425D01*
X0021143Y0023425D02*
X0029143Y0031425D01*
X0034493Y0031175D02*
X0042493Y0031175D01*
X0038493Y0027175D02*
X0038493Y0035175D01*
X0034493Y0036175D02*
X0042493Y0036175D01*
X0038493Y0032175D02*
X0038493Y0040175D01*
X0039318Y0046175D02*
X0039320Y0046299D01*
X0039326Y0046424D01*
X0039336Y0046548D01*
X0039350Y0046671D01*
X0039367Y0046794D01*
X0039389Y0046917D01*
X0039415Y0047039D01*
X0039444Y0047159D01*
X0039478Y0047279D01*
X0039515Y0047398D01*
X0039556Y0047515D01*
X0039600Y0047631D01*
X0039648Y0047746D01*
X0039700Y0047859D01*
X0039756Y0047970D01*
X0039815Y0048080D01*
X0039877Y0048187D01*
X0039943Y0048293D01*
X0040012Y0048396D01*
X0040085Y0048497D01*
X0040161Y0048596D01*
X0040239Y0048692D01*
X0040321Y0048786D01*
X0040406Y0048877D01*
X0040493Y0048966D01*
X0040584Y0049051D01*
X0040677Y0049134D01*
X0040773Y0049213D01*
X0040871Y0049289D01*
X0040971Y0049363D01*
X0041074Y0049433D01*
X0041179Y0049499D01*
X0041286Y0049563D01*
X0041395Y0049623D01*
X0041506Y0049679D01*
X0041618Y0049732D01*
X0041733Y0049781D01*
X0041848Y0049827D01*
X0041966Y0049868D01*
X0042084Y0049907D01*
X0042204Y0049941D01*
X0042324Y0049971D01*
X0042446Y0049998D01*
X0042568Y0050020D01*
X0042691Y0050039D01*
X0042814Y0050054D01*
X0042938Y0050065D01*
X0043063Y0050072D01*
X0043187Y0050075D01*
X0043311Y0050074D01*
X0043436Y0050069D01*
X0043560Y0050060D01*
X0043683Y0050047D01*
X0043807Y0050030D01*
X0043929Y0050010D01*
X0044051Y0049985D01*
X0044172Y0049956D01*
X0044292Y0049924D01*
X0044411Y0049888D01*
X0044529Y0049848D01*
X0044646Y0049804D01*
X0044761Y0049757D01*
X0044874Y0049706D01*
X0044986Y0049651D01*
X0045096Y0049593D01*
X0045204Y0049532D01*
X0045310Y0049467D01*
X0045414Y0049398D01*
X0045515Y0049327D01*
X0045615Y0049252D01*
X0045712Y0049174D01*
X0045806Y0049093D01*
X0045898Y0049009D01*
X0045987Y0048922D01*
X0046073Y0048832D01*
X0046156Y0048740D01*
X0046236Y0048645D01*
X0046314Y0048547D01*
X0046388Y0048447D01*
X0046459Y0048345D01*
X0046526Y0048241D01*
X0046590Y0048134D01*
X0046651Y0048025D01*
X0046708Y0047915D01*
X0046762Y0047803D01*
X0046812Y0047689D01*
X0046859Y0047574D01*
X0046901Y0047457D01*
X0046940Y0047339D01*
X0046976Y0047219D01*
X0047007Y0047099D01*
X0047034Y0046978D01*
X0047058Y0046856D01*
X0047078Y0046733D01*
X0047094Y0046609D01*
X0047106Y0046486D01*
X0047114Y0046362D01*
X0047118Y0046237D01*
X0047118Y0046113D01*
X0047114Y0045988D01*
X0047106Y0045864D01*
X0047094Y0045741D01*
X0047078Y0045617D01*
X0047058Y0045494D01*
X0047034Y0045372D01*
X0047007Y0045251D01*
X0046976Y0045131D01*
X0046940Y0045011D01*
X0046901Y0044893D01*
X0046859Y0044776D01*
X0046812Y0044661D01*
X0046762Y0044547D01*
X0046708Y0044435D01*
X0046651Y0044325D01*
X0046590Y0044216D01*
X0046526Y0044109D01*
X0046459Y0044005D01*
X0046388Y0043903D01*
X0046314Y0043803D01*
X0046236Y0043705D01*
X0046156Y0043610D01*
X0046073Y0043518D01*
X0045987Y0043428D01*
X0045898Y0043341D01*
X0045806Y0043257D01*
X0045712Y0043176D01*
X0045615Y0043098D01*
X0045515Y0043023D01*
X0045414Y0042952D01*
X0045310Y0042883D01*
X0045204Y0042818D01*
X0045096Y0042757D01*
X0044986Y0042699D01*
X0044874Y0042644D01*
X0044761Y0042593D01*
X0044646Y0042546D01*
X0044529Y0042502D01*
X0044411Y0042462D01*
X0044292Y0042426D01*
X0044172Y0042394D01*
X0044051Y0042365D01*
X0043929Y0042340D01*
X0043807Y0042320D01*
X0043683Y0042303D01*
X0043560Y0042290D01*
X0043436Y0042281D01*
X0043311Y0042276D01*
X0043187Y0042275D01*
X0043063Y0042278D01*
X0042938Y0042285D01*
X0042814Y0042296D01*
X0042691Y0042311D01*
X0042568Y0042330D01*
X0042446Y0042352D01*
X0042324Y0042379D01*
X0042204Y0042409D01*
X0042084Y0042443D01*
X0041966Y0042482D01*
X0041848Y0042523D01*
X0041733Y0042569D01*
X0041618Y0042618D01*
X0041506Y0042671D01*
X0041395Y0042727D01*
X0041286Y0042787D01*
X0041179Y0042851D01*
X0041074Y0042917D01*
X0040971Y0042987D01*
X0040871Y0043061D01*
X0040773Y0043137D01*
X0040677Y0043216D01*
X0040584Y0043299D01*
X0040493Y0043384D01*
X0040406Y0043473D01*
X0040321Y0043564D01*
X0040239Y0043658D01*
X0040161Y0043754D01*
X0040085Y0043853D01*
X0040012Y0043954D01*
X0039943Y0044057D01*
X0039877Y0044163D01*
X0039815Y0044270D01*
X0039756Y0044380D01*
X0039700Y0044491D01*
X0039648Y0044604D01*
X0039600Y0044719D01*
X0039556Y0044835D01*
X0039515Y0044952D01*
X0039478Y0045071D01*
X0039444Y0045191D01*
X0039415Y0045311D01*
X0039389Y0045433D01*
X0039367Y0045556D01*
X0039350Y0045679D01*
X0039336Y0045802D01*
X0039326Y0045926D01*
X0039320Y0046051D01*
X0039318Y0046175D01*
X0039218Y0042175D02*
X0047218Y0050175D01*
X0049318Y0046175D02*
X0049320Y0046299D01*
X0049326Y0046424D01*
X0049336Y0046548D01*
X0049350Y0046671D01*
X0049367Y0046794D01*
X0049389Y0046917D01*
X0049415Y0047039D01*
X0049444Y0047159D01*
X0049478Y0047279D01*
X0049515Y0047398D01*
X0049556Y0047515D01*
X0049600Y0047631D01*
X0049648Y0047746D01*
X0049700Y0047859D01*
X0049756Y0047970D01*
X0049815Y0048080D01*
X0049877Y0048187D01*
X0049943Y0048293D01*
X0050012Y0048396D01*
X0050085Y0048497D01*
X0050161Y0048596D01*
X0050239Y0048692D01*
X0050321Y0048786D01*
X0050406Y0048877D01*
X0050493Y0048966D01*
X0050584Y0049051D01*
X0050677Y0049134D01*
X0050773Y0049213D01*
X0050871Y0049289D01*
X0050971Y0049363D01*
X0051074Y0049433D01*
X0051179Y0049499D01*
X0051286Y0049563D01*
X0051395Y0049623D01*
X0051506Y0049679D01*
X0051618Y0049732D01*
X0051733Y0049781D01*
X0051848Y0049827D01*
X0051966Y0049868D01*
X0052084Y0049907D01*
X0052204Y0049941D01*
X0052324Y0049971D01*
X0052446Y0049998D01*
X0052568Y0050020D01*
X0052691Y0050039D01*
X0052814Y0050054D01*
X0052938Y0050065D01*
X0053063Y0050072D01*
X0053187Y0050075D01*
X0053311Y0050074D01*
X0053436Y0050069D01*
X0053560Y0050060D01*
X0053683Y0050047D01*
X0053807Y0050030D01*
X0053929Y0050010D01*
X0054051Y0049985D01*
X0054172Y0049956D01*
X0054292Y0049924D01*
X0054411Y0049888D01*
X0054529Y0049848D01*
X0054646Y0049804D01*
X0054761Y0049757D01*
X0054874Y0049706D01*
X0054986Y0049651D01*
X0055096Y0049593D01*
X0055204Y0049532D01*
X0055310Y0049467D01*
X0055414Y0049398D01*
X0055515Y0049327D01*
X0055615Y0049252D01*
X0055712Y0049174D01*
X0055806Y0049093D01*
X0055898Y0049009D01*
X0055987Y0048922D01*
X0056073Y0048832D01*
X0056156Y0048740D01*
X0056236Y0048645D01*
X0056314Y0048547D01*
X0056388Y0048447D01*
X0056459Y0048345D01*
X0056526Y0048241D01*
X0056590Y0048134D01*
X0056651Y0048025D01*
X0056708Y0047915D01*
X0056762Y0047803D01*
X0056812Y0047689D01*
X0056859Y0047574D01*
X0056901Y0047457D01*
X0056940Y0047339D01*
X0056976Y0047219D01*
X0057007Y0047099D01*
X0057034Y0046978D01*
X0057058Y0046856D01*
X0057078Y0046733D01*
X0057094Y0046609D01*
X0057106Y0046486D01*
X0057114Y0046362D01*
X0057118Y0046237D01*
X0057118Y0046113D01*
X0057114Y0045988D01*
X0057106Y0045864D01*
X0057094Y0045741D01*
X0057078Y0045617D01*
X0057058Y0045494D01*
X0057034Y0045372D01*
X0057007Y0045251D01*
X0056976Y0045131D01*
X0056940Y0045011D01*
X0056901Y0044893D01*
X0056859Y0044776D01*
X0056812Y0044661D01*
X0056762Y0044547D01*
X0056708Y0044435D01*
X0056651Y0044325D01*
X0056590Y0044216D01*
X0056526Y0044109D01*
X0056459Y0044005D01*
X0056388Y0043903D01*
X0056314Y0043803D01*
X0056236Y0043705D01*
X0056156Y0043610D01*
X0056073Y0043518D01*
X0055987Y0043428D01*
X0055898Y0043341D01*
X0055806Y0043257D01*
X0055712Y0043176D01*
X0055615Y0043098D01*
X0055515Y0043023D01*
X0055414Y0042952D01*
X0055310Y0042883D01*
X0055204Y0042818D01*
X0055096Y0042757D01*
X0054986Y0042699D01*
X0054874Y0042644D01*
X0054761Y0042593D01*
X0054646Y0042546D01*
X0054529Y0042502D01*
X0054411Y0042462D01*
X0054292Y0042426D01*
X0054172Y0042394D01*
X0054051Y0042365D01*
X0053929Y0042340D01*
X0053807Y0042320D01*
X0053683Y0042303D01*
X0053560Y0042290D01*
X0053436Y0042281D01*
X0053311Y0042276D01*
X0053187Y0042275D01*
X0053063Y0042278D01*
X0052938Y0042285D01*
X0052814Y0042296D01*
X0052691Y0042311D01*
X0052568Y0042330D01*
X0052446Y0042352D01*
X0052324Y0042379D01*
X0052204Y0042409D01*
X0052084Y0042443D01*
X0051966Y0042482D01*
X0051848Y0042523D01*
X0051733Y0042569D01*
X0051618Y0042618D01*
X0051506Y0042671D01*
X0051395Y0042727D01*
X0051286Y0042787D01*
X0051179Y0042851D01*
X0051074Y0042917D01*
X0050971Y0042987D01*
X0050871Y0043061D01*
X0050773Y0043137D01*
X0050677Y0043216D01*
X0050584Y0043299D01*
X0050493Y0043384D01*
X0050406Y0043473D01*
X0050321Y0043564D01*
X0050239Y0043658D01*
X0050161Y0043754D01*
X0050085Y0043853D01*
X0050012Y0043954D01*
X0049943Y0044057D01*
X0049877Y0044163D01*
X0049815Y0044270D01*
X0049756Y0044380D01*
X0049700Y0044491D01*
X0049648Y0044604D01*
X0049600Y0044719D01*
X0049556Y0044835D01*
X0049515Y0044952D01*
X0049478Y0045071D01*
X0049444Y0045191D01*
X0049415Y0045311D01*
X0049389Y0045433D01*
X0049367Y0045556D01*
X0049350Y0045679D01*
X0049336Y0045802D01*
X0049326Y0045926D01*
X0049320Y0046051D01*
X0049318Y0046175D01*
X0049218Y0042175D02*
X0057218Y0050175D01*
X0055468Y0053050D02*
X0063468Y0053050D01*
X0059468Y0049050D02*
X0059468Y0057050D01*
X0049318Y0059300D02*
X0049320Y0059424D01*
X0049326Y0059549D01*
X0049336Y0059673D01*
X0049350Y0059796D01*
X0049367Y0059919D01*
X0049389Y0060042D01*
X0049415Y0060164D01*
X0049444Y0060284D01*
X0049478Y0060404D01*
X0049515Y0060523D01*
X0049556Y0060640D01*
X0049600Y0060756D01*
X0049648Y0060871D01*
X0049700Y0060984D01*
X0049756Y0061095D01*
X0049815Y0061205D01*
X0049877Y0061312D01*
X0049943Y0061418D01*
X0050012Y0061521D01*
X0050085Y0061622D01*
X0050161Y0061721D01*
X0050239Y0061817D01*
X0050321Y0061911D01*
X0050406Y0062002D01*
X0050493Y0062091D01*
X0050584Y0062176D01*
X0050677Y0062259D01*
X0050773Y0062338D01*
X0050871Y0062414D01*
X0050971Y0062488D01*
X0051074Y0062558D01*
X0051179Y0062624D01*
X0051286Y0062688D01*
X0051395Y0062748D01*
X0051506Y0062804D01*
X0051618Y0062857D01*
X0051733Y0062906D01*
X0051848Y0062952D01*
X0051966Y0062993D01*
X0052084Y0063032D01*
X0052204Y0063066D01*
X0052324Y0063096D01*
X0052446Y0063123D01*
X0052568Y0063145D01*
X0052691Y0063164D01*
X0052814Y0063179D01*
X0052938Y0063190D01*
X0053063Y0063197D01*
X0053187Y0063200D01*
X0053311Y0063199D01*
X0053436Y0063194D01*
X0053560Y0063185D01*
X0053683Y0063172D01*
X0053807Y0063155D01*
X0053929Y0063135D01*
X0054051Y0063110D01*
X0054172Y0063081D01*
X0054292Y0063049D01*
X0054411Y0063013D01*
X0054529Y0062973D01*
X0054646Y0062929D01*
X0054761Y0062882D01*
X0054874Y0062831D01*
X0054986Y0062776D01*
X0055096Y0062718D01*
X0055204Y0062657D01*
X0055310Y0062592D01*
X0055414Y0062523D01*
X0055515Y0062452D01*
X0055615Y0062377D01*
X0055712Y0062299D01*
X0055806Y0062218D01*
X0055898Y0062134D01*
X0055987Y0062047D01*
X0056073Y0061957D01*
X0056156Y0061865D01*
X0056236Y0061770D01*
X0056314Y0061672D01*
X0056388Y0061572D01*
X0056459Y0061470D01*
X0056526Y0061366D01*
X0056590Y0061259D01*
X0056651Y0061150D01*
X0056708Y0061040D01*
X0056762Y0060928D01*
X0056812Y0060814D01*
X0056859Y0060699D01*
X0056901Y0060582D01*
X0056940Y0060464D01*
X0056976Y0060344D01*
X0057007Y0060224D01*
X0057034Y0060103D01*
X0057058Y0059981D01*
X0057078Y0059858D01*
X0057094Y0059734D01*
X0057106Y0059611D01*
X0057114Y0059487D01*
X0057118Y0059362D01*
X0057118Y0059238D01*
X0057114Y0059113D01*
X0057106Y0058989D01*
X0057094Y0058866D01*
X0057078Y0058742D01*
X0057058Y0058619D01*
X0057034Y0058497D01*
X0057007Y0058376D01*
X0056976Y0058256D01*
X0056940Y0058136D01*
X0056901Y0058018D01*
X0056859Y0057901D01*
X0056812Y0057786D01*
X0056762Y0057672D01*
X0056708Y0057560D01*
X0056651Y0057450D01*
X0056590Y0057341D01*
X0056526Y0057234D01*
X0056459Y0057130D01*
X0056388Y0057028D01*
X0056314Y0056928D01*
X0056236Y0056830D01*
X0056156Y0056735D01*
X0056073Y0056643D01*
X0055987Y0056553D01*
X0055898Y0056466D01*
X0055806Y0056382D01*
X0055712Y0056301D01*
X0055615Y0056223D01*
X0055515Y0056148D01*
X0055414Y0056077D01*
X0055310Y0056008D01*
X0055204Y0055943D01*
X0055096Y0055882D01*
X0054986Y0055824D01*
X0054874Y0055769D01*
X0054761Y0055718D01*
X0054646Y0055671D01*
X0054529Y0055627D01*
X0054411Y0055587D01*
X0054292Y0055551D01*
X0054172Y0055519D01*
X0054051Y0055490D01*
X0053929Y0055465D01*
X0053807Y0055445D01*
X0053683Y0055428D01*
X0053560Y0055415D01*
X0053436Y0055406D01*
X0053311Y0055401D01*
X0053187Y0055400D01*
X0053063Y0055403D01*
X0052938Y0055410D01*
X0052814Y0055421D01*
X0052691Y0055436D01*
X0052568Y0055455D01*
X0052446Y0055477D01*
X0052324Y0055504D01*
X0052204Y0055534D01*
X0052084Y0055568D01*
X0051966Y0055607D01*
X0051848Y0055648D01*
X0051733Y0055694D01*
X0051618Y0055743D01*
X0051506Y0055796D01*
X0051395Y0055852D01*
X0051286Y0055912D01*
X0051179Y0055976D01*
X0051074Y0056042D01*
X0050971Y0056112D01*
X0050871Y0056186D01*
X0050773Y0056262D01*
X0050677Y0056341D01*
X0050584Y0056424D01*
X0050493Y0056509D01*
X0050406Y0056598D01*
X0050321Y0056689D01*
X0050239Y0056783D01*
X0050161Y0056879D01*
X0050085Y0056978D01*
X0050012Y0057079D01*
X0049943Y0057182D01*
X0049877Y0057288D01*
X0049815Y0057395D01*
X0049756Y0057505D01*
X0049700Y0057616D01*
X0049648Y0057729D01*
X0049600Y0057844D01*
X0049556Y0057960D01*
X0049515Y0058077D01*
X0049478Y0058196D01*
X0049444Y0058316D01*
X0049415Y0058436D01*
X0049389Y0058558D01*
X0049367Y0058681D01*
X0049350Y0058804D01*
X0049336Y0058927D01*
X0049326Y0059051D01*
X0049320Y0059176D01*
X0049318Y0059300D01*
X0049218Y0055300D02*
X0057218Y0063300D01*
X0063593Y0066175D02*
X0071593Y0066175D01*
X0067593Y0062175D02*
X0067593Y0070175D01*
X0063868Y0077425D02*
X0071868Y0077425D01*
X0067868Y0073425D02*
X0067868Y0081425D01*
X0051818Y0083050D02*
X0051820Y0083174D01*
X0051826Y0083299D01*
X0051836Y0083423D01*
X0051850Y0083546D01*
X0051867Y0083669D01*
X0051889Y0083792D01*
X0051915Y0083914D01*
X0051944Y0084034D01*
X0051978Y0084154D01*
X0052015Y0084273D01*
X0052056Y0084390D01*
X0052100Y0084506D01*
X0052148Y0084621D01*
X0052200Y0084734D01*
X0052256Y0084845D01*
X0052315Y0084955D01*
X0052377Y0085062D01*
X0052443Y0085168D01*
X0052512Y0085271D01*
X0052585Y0085372D01*
X0052661Y0085471D01*
X0052739Y0085567D01*
X0052821Y0085661D01*
X0052906Y0085752D01*
X0052993Y0085841D01*
X0053084Y0085926D01*
X0053177Y0086009D01*
X0053273Y0086088D01*
X0053371Y0086164D01*
X0053471Y0086238D01*
X0053574Y0086308D01*
X0053679Y0086374D01*
X0053786Y0086438D01*
X0053895Y0086498D01*
X0054006Y0086554D01*
X0054118Y0086607D01*
X0054233Y0086656D01*
X0054348Y0086702D01*
X0054466Y0086743D01*
X0054584Y0086782D01*
X0054704Y0086816D01*
X0054824Y0086846D01*
X0054946Y0086873D01*
X0055068Y0086895D01*
X0055191Y0086914D01*
X0055314Y0086929D01*
X0055438Y0086940D01*
X0055563Y0086947D01*
X0055687Y0086950D01*
X0055811Y0086949D01*
X0055936Y0086944D01*
X0056060Y0086935D01*
X0056183Y0086922D01*
X0056307Y0086905D01*
X0056429Y0086885D01*
X0056551Y0086860D01*
X0056672Y0086831D01*
X0056792Y0086799D01*
X0056911Y0086763D01*
X0057029Y0086723D01*
X0057146Y0086679D01*
X0057261Y0086632D01*
X0057374Y0086581D01*
X0057486Y0086526D01*
X0057596Y0086468D01*
X0057704Y0086407D01*
X0057810Y0086342D01*
X0057914Y0086273D01*
X0058015Y0086202D01*
X0058115Y0086127D01*
X0058212Y0086049D01*
X0058306Y0085968D01*
X0058398Y0085884D01*
X0058487Y0085797D01*
X0058573Y0085707D01*
X0058656Y0085615D01*
X0058736Y0085520D01*
X0058814Y0085422D01*
X0058888Y0085322D01*
X0058959Y0085220D01*
X0059026Y0085116D01*
X0059090Y0085009D01*
X0059151Y0084900D01*
X0059208Y0084790D01*
X0059262Y0084678D01*
X0059312Y0084564D01*
X0059359Y0084449D01*
X0059401Y0084332D01*
X0059440Y0084214D01*
X0059476Y0084094D01*
X0059507Y0083974D01*
X0059534Y0083853D01*
X0059558Y0083731D01*
X0059578Y0083608D01*
X0059594Y0083484D01*
X0059606Y0083361D01*
X0059614Y0083237D01*
X0059618Y0083112D01*
X0059618Y0082988D01*
X0059614Y0082863D01*
X0059606Y0082739D01*
X0059594Y0082616D01*
X0059578Y0082492D01*
X0059558Y0082369D01*
X0059534Y0082247D01*
X0059507Y0082126D01*
X0059476Y0082006D01*
X0059440Y0081886D01*
X0059401Y0081768D01*
X0059359Y0081651D01*
X0059312Y0081536D01*
X0059262Y0081422D01*
X0059208Y0081310D01*
X0059151Y0081200D01*
X0059090Y0081091D01*
X0059026Y0080984D01*
X0058959Y0080880D01*
X0058888Y0080778D01*
X0058814Y0080678D01*
X0058736Y0080580D01*
X0058656Y0080485D01*
X0058573Y0080393D01*
X0058487Y0080303D01*
X0058398Y0080216D01*
X0058306Y0080132D01*
X0058212Y0080051D01*
X0058115Y0079973D01*
X0058015Y0079898D01*
X0057914Y0079827D01*
X0057810Y0079758D01*
X0057704Y0079693D01*
X0057596Y0079632D01*
X0057486Y0079574D01*
X0057374Y0079519D01*
X0057261Y0079468D01*
X0057146Y0079421D01*
X0057029Y0079377D01*
X0056911Y0079337D01*
X0056792Y0079301D01*
X0056672Y0079269D01*
X0056551Y0079240D01*
X0056429Y0079215D01*
X0056307Y0079195D01*
X0056183Y0079178D01*
X0056060Y0079165D01*
X0055936Y0079156D01*
X0055811Y0079151D01*
X0055687Y0079150D01*
X0055563Y0079153D01*
X0055438Y0079160D01*
X0055314Y0079171D01*
X0055191Y0079186D01*
X0055068Y0079205D01*
X0054946Y0079227D01*
X0054824Y0079254D01*
X0054704Y0079284D01*
X0054584Y0079318D01*
X0054466Y0079357D01*
X0054348Y0079398D01*
X0054233Y0079444D01*
X0054118Y0079493D01*
X0054006Y0079546D01*
X0053895Y0079602D01*
X0053786Y0079662D01*
X0053679Y0079726D01*
X0053574Y0079792D01*
X0053471Y0079862D01*
X0053371Y0079936D01*
X0053273Y0080012D01*
X0053177Y0080091D01*
X0053084Y0080174D01*
X0052993Y0080259D01*
X0052906Y0080348D01*
X0052821Y0080439D01*
X0052739Y0080533D01*
X0052661Y0080629D01*
X0052585Y0080728D01*
X0052512Y0080829D01*
X0052443Y0080932D01*
X0052377Y0081038D01*
X0052315Y0081145D01*
X0052256Y0081255D01*
X0052200Y0081366D01*
X0052148Y0081479D01*
X0052100Y0081594D01*
X0052056Y0081710D01*
X0052015Y0081827D01*
X0051978Y0081946D01*
X0051944Y0082066D01*
X0051915Y0082186D01*
X0051889Y0082308D01*
X0051867Y0082431D01*
X0051850Y0082554D01*
X0051836Y0082677D01*
X0051826Y0082801D01*
X0051820Y0082926D01*
X0051818Y0083050D01*
X0051718Y0079050D02*
X0059718Y0087050D01*
X0060468Y0091175D02*
X0068468Y0091175D01*
X0064468Y0087175D02*
X0064468Y0095175D01*
X0035568Y0083050D02*
X0035570Y0083174D01*
X0035576Y0083299D01*
X0035586Y0083423D01*
X0035600Y0083546D01*
X0035617Y0083669D01*
X0035639Y0083792D01*
X0035665Y0083914D01*
X0035694Y0084034D01*
X0035728Y0084154D01*
X0035765Y0084273D01*
X0035806Y0084390D01*
X0035850Y0084506D01*
X0035898Y0084621D01*
X0035950Y0084734D01*
X0036006Y0084845D01*
X0036065Y0084955D01*
X0036127Y0085062D01*
X0036193Y0085168D01*
X0036262Y0085271D01*
X0036335Y0085372D01*
X0036411Y0085471D01*
X0036489Y0085567D01*
X0036571Y0085661D01*
X0036656Y0085752D01*
X0036743Y0085841D01*
X0036834Y0085926D01*
X0036927Y0086009D01*
X0037023Y0086088D01*
X0037121Y0086164D01*
X0037221Y0086238D01*
X0037324Y0086308D01*
X0037429Y0086374D01*
X0037536Y0086438D01*
X0037645Y0086498D01*
X0037756Y0086554D01*
X0037868Y0086607D01*
X0037983Y0086656D01*
X0038098Y0086702D01*
X0038216Y0086743D01*
X0038334Y0086782D01*
X0038454Y0086816D01*
X0038574Y0086846D01*
X0038696Y0086873D01*
X0038818Y0086895D01*
X0038941Y0086914D01*
X0039064Y0086929D01*
X0039188Y0086940D01*
X0039313Y0086947D01*
X0039437Y0086950D01*
X0039561Y0086949D01*
X0039686Y0086944D01*
X0039810Y0086935D01*
X0039933Y0086922D01*
X0040057Y0086905D01*
X0040179Y0086885D01*
X0040301Y0086860D01*
X0040422Y0086831D01*
X0040542Y0086799D01*
X0040661Y0086763D01*
X0040779Y0086723D01*
X0040896Y0086679D01*
X0041011Y0086632D01*
X0041124Y0086581D01*
X0041236Y0086526D01*
X0041346Y0086468D01*
X0041454Y0086407D01*
X0041560Y0086342D01*
X0041664Y0086273D01*
X0041765Y0086202D01*
X0041865Y0086127D01*
X0041962Y0086049D01*
X0042056Y0085968D01*
X0042148Y0085884D01*
X0042237Y0085797D01*
X0042323Y0085707D01*
X0042406Y0085615D01*
X0042486Y0085520D01*
X0042564Y0085422D01*
X0042638Y0085322D01*
X0042709Y0085220D01*
X0042776Y0085116D01*
X0042840Y0085009D01*
X0042901Y0084900D01*
X0042958Y0084790D01*
X0043012Y0084678D01*
X0043062Y0084564D01*
X0043109Y0084449D01*
X0043151Y0084332D01*
X0043190Y0084214D01*
X0043226Y0084094D01*
X0043257Y0083974D01*
X0043284Y0083853D01*
X0043308Y0083731D01*
X0043328Y0083608D01*
X0043344Y0083484D01*
X0043356Y0083361D01*
X0043364Y0083237D01*
X0043368Y0083112D01*
X0043368Y0082988D01*
X0043364Y0082863D01*
X0043356Y0082739D01*
X0043344Y0082616D01*
X0043328Y0082492D01*
X0043308Y0082369D01*
X0043284Y0082247D01*
X0043257Y0082126D01*
X0043226Y0082006D01*
X0043190Y0081886D01*
X0043151Y0081768D01*
X0043109Y0081651D01*
X0043062Y0081536D01*
X0043012Y0081422D01*
X0042958Y0081310D01*
X0042901Y0081200D01*
X0042840Y0081091D01*
X0042776Y0080984D01*
X0042709Y0080880D01*
X0042638Y0080778D01*
X0042564Y0080678D01*
X0042486Y0080580D01*
X0042406Y0080485D01*
X0042323Y0080393D01*
X0042237Y0080303D01*
X0042148Y0080216D01*
X0042056Y0080132D01*
X0041962Y0080051D01*
X0041865Y0079973D01*
X0041765Y0079898D01*
X0041664Y0079827D01*
X0041560Y0079758D01*
X0041454Y0079693D01*
X0041346Y0079632D01*
X0041236Y0079574D01*
X0041124Y0079519D01*
X0041011Y0079468D01*
X0040896Y0079421D01*
X0040779Y0079377D01*
X0040661Y0079337D01*
X0040542Y0079301D01*
X0040422Y0079269D01*
X0040301Y0079240D01*
X0040179Y0079215D01*
X0040057Y0079195D01*
X0039933Y0079178D01*
X0039810Y0079165D01*
X0039686Y0079156D01*
X0039561Y0079151D01*
X0039437Y0079150D01*
X0039313Y0079153D01*
X0039188Y0079160D01*
X0039064Y0079171D01*
X0038941Y0079186D01*
X0038818Y0079205D01*
X0038696Y0079227D01*
X0038574Y0079254D01*
X0038454Y0079284D01*
X0038334Y0079318D01*
X0038216Y0079357D01*
X0038098Y0079398D01*
X0037983Y0079444D01*
X0037868Y0079493D01*
X0037756Y0079546D01*
X0037645Y0079602D01*
X0037536Y0079662D01*
X0037429Y0079726D01*
X0037324Y0079792D01*
X0037221Y0079862D01*
X0037121Y0079936D01*
X0037023Y0080012D01*
X0036927Y0080091D01*
X0036834Y0080174D01*
X0036743Y0080259D01*
X0036656Y0080348D01*
X0036571Y0080439D01*
X0036489Y0080533D01*
X0036411Y0080629D01*
X0036335Y0080728D01*
X0036262Y0080829D01*
X0036193Y0080932D01*
X0036127Y0081038D01*
X0036065Y0081145D01*
X0036006Y0081255D01*
X0035950Y0081366D01*
X0035898Y0081479D01*
X0035850Y0081594D01*
X0035806Y0081710D01*
X0035765Y0081827D01*
X0035728Y0081946D01*
X0035694Y0082066D01*
X0035665Y0082186D01*
X0035639Y0082308D01*
X0035617Y0082431D01*
X0035600Y0082554D01*
X0035586Y0082677D01*
X0035576Y0082801D01*
X0035570Y0082926D01*
X0035568Y0083050D01*
X0035468Y0079050D02*
X0043468Y0087050D01*
X0035618Y0078050D02*
X0027618Y0078050D01*
X0031618Y0074050D02*
X0031618Y0082050D01*
X0021197Y0087893D02*
X0021199Y0088017D01*
X0021205Y0088142D01*
X0021215Y0088266D01*
X0021229Y0088389D01*
X0021246Y0088512D01*
X0021268Y0088635D01*
X0021294Y0088757D01*
X0021323Y0088877D01*
X0021357Y0088997D01*
X0021394Y0089116D01*
X0021435Y0089233D01*
X0021479Y0089349D01*
X0021527Y0089464D01*
X0021579Y0089577D01*
X0021635Y0089688D01*
X0021694Y0089798D01*
X0021756Y0089905D01*
X0021822Y0090011D01*
X0021891Y0090114D01*
X0021964Y0090215D01*
X0022040Y0090314D01*
X0022118Y0090410D01*
X0022200Y0090504D01*
X0022285Y0090595D01*
X0022372Y0090684D01*
X0022463Y0090769D01*
X0022556Y0090852D01*
X0022652Y0090931D01*
X0022750Y0091007D01*
X0022850Y0091081D01*
X0022953Y0091151D01*
X0023058Y0091217D01*
X0023165Y0091281D01*
X0023274Y0091341D01*
X0023385Y0091397D01*
X0023497Y0091450D01*
X0023612Y0091499D01*
X0023727Y0091545D01*
X0023845Y0091586D01*
X0023963Y0091625D01*
X0024083Y0091659D01*
X0024203Y0091689D01*
X0024325Y0091716D01*
X0024447Y0091738D01*
X0024570Y0091757D01*
X0024693Y0091772D01*
X0024817Y0091783D01*
X0024942Y0091790D01*
X0025066Y0091793D01*
X0025190Y0091792D01*
X0025315Y0091787D01*
X0025439Y0091778D01*
X0025562Y0091765D01*
X0025686Y0091748D01*
X0025808Y0091728D01*
X0025930Y0091703D01*
X0026051Y0091674D01*
X0026171Y0091642D01*
X0026290Y0091606D01*
X0026408Y0091566D01*
X0026525Y0091522D01*
X0026640Y0091475D01*
X0026753Y0091424D01*
X0026865Y0091369D01*
X0026975Y0091311D01*
X0027083Y0091250D01*
X0027189Y0091185D01*
X0027293Y0091116D01*
X0027394Y0091045D01*
X0027494Y0090970D01*
X0027591Y0090892D01*
X0027685Y0090811D01*
X0027777Y0090727D01*
X0027866Y0090640D01*
X0027952Y0090550D01*
X0028035Y0090458D01*
X0028115Y0090363D01*
X0028193Y0090265D01*
X0028267Y0090165D01*
X0028338Y0090063D01*
X0028405Y0089959D01*
X0028469Y0089852D01*
X0028530Y0089743D01*
X0028587Y0089633D01*
X0028641Y0089521D01*
X0028691Y0089407D01*
X0028738Y0089292D01*
X0028780Y0089175D01*
X0028819Y0089057D01*
X0028855Y0088937D01*
X0028886Y0088817D01*
X0028913Y0088696D01*
X0028937Y0088574D01*
X0028957Y0088451D01*
X0028973Y0088327D01*
X0028985Y0088204D01*
X0028993Y0088080D01*
X0028997Y0087955D01*
X0028997Y0087831D01*
X0028993Y0087706D01*
X0028985Y0087582D01*
X0028973Y0087459D01*
X0028957Y0087335D01*
X0028937Y0087212D01*
X0028913Y0087090D01*
X0028886Y0086969D01*
X0028855Y0086849D01*
X0028819Y0086729D01*
X0028780Y0086611D01*
X0028738Y0086494D01*
X0028691Y0086379D01*
X0028641Y0086265D01*
X0028587Y0086153D01*
X0028530Y0086043D01*
X0028469Y0085934D01*
X0028405Y0085827D01*
X0028338Y0085723D01*
X0028267Y0085621D01*
X0028193Y0085521D01*
X0028115Y0085423D01*
X0028035Y0085328D01*
X0027952Y0085236D01*
X0027866Y0085146D01*
X0027777Y0085059D01*
X0027685Y0084975D01*
X0027591Y0084894D01*
X0027494Y0084816D01*
X0027394Y0084741D01*
X0027293Y0084670D01*
X0027189Y0084601D01*
X0027083Y0084536D01*
X0026975Y0084475D01*
X0026865Y0084417D01*
X0026753Y0084362D01*
X0026640Y0084311D01*
X0026525Y0084264D01*
X0026408Y0084220D01*
X0026290Y0084180D01*
X0026171Y0084144D01*
X0026051Y0084112D01*
X0025930Y0084083D01*
X0025808Y0084058D01*
X0025686Y0084038D01*
X0025562Y0084021D01*
X0025439Y0084008D01*
X0025315Y0083999D01*
X0025190Y0083994D01*
X0025066Y0083993D01*
X0024942Y0083996D01*
X0024817Y0084003D01*
X0024693Y0084014D01*
X0024570Y0084029D01*
X0024447Y0084048D01*
X0024325Y0084070D01*
X0024203Y0084097D01*
X0024083Y0084127D01*
X0023963Y0084161D01*
X0023845Y0084200D01*
X0023727Y0084241D01*
X0023612Y0084287D01*
X0023497Y0084336D01*
X0023385Y0084389D01*
X0023274Y0084445D01*
X0023165Y0084505D01*
X0023058Y0084569D01*
X0022953Y0084635D01*
X0022850Y0084705D01*
X0022750Y0084779D01*
X0022652Y0084855D01*
X0022556Y0084934D01*
X0022463Y0085017D01*
X0022372Y0085102D01*
X0022285Y0085191D01*
X0022200Y0085282D01*
X0022118Y0085376D01*
X0022040Y0085472D01*
X0021964Y0085571D01*
X0021891Y0085672D01*
X0021822Y0085775D01*
X0021756Y0085881D01*
X0021694Y0085988D01*
X0021635Y0086098D01*
X0021579Y0086209D01*
X0021527Y0086322D01*
X0021479Y0086437D01*
X0021435Y0086553D01*
X0021394Y0086670D01*
X0021357Y0086789D01*
X0021323Y0086909D01*
X0021294Y0087029D01*
X0021268Y0087151D01*
X0021246Y0087274D01*
X0021229Y0087397D01*
X0021215Y0087520D01*
X0021205Y0087644D01*
X0021199Y0087769D01*
X0021197Y0087893D01*
X0021097Y0083893D02*
X0029097Y0091893D01*
X0010568Y0093109D02*
X0010570Y0093233D01*
X0010576Y0093358D01*
X0010586Y0093482D01*
X0010600Y0093605D01*
X0010617Y0093728D01*
X0010639Y0093851D01*
X0010665Y0093973D01*
X0010694Y0094093D01*
X0010728Y0094213D01*
X0010765Y0094332D01*
X0010806Y0094449D01*
X0010850Y0094565D01*
X0010898Y0094680D01*
X0010950Y0094793D01*
X0011006Y0094904D01*
X0011065Y0095014D01*
X0011127Y0095121D01*
X0011193Y0095227D01*
X0011262Y0095330D01*
X0011335Y0095431D01*
X0011411Y0095530D01*
X0011489Y0095626D01*
X0011571Y0095720D01*
X0011656Y0095811D01*
X0011743Y0095900D01*
X0011834Y0095985D01*
X0011927Y0096068D01*
X0012023Y0096147D01*
X0012121Y0096223D01*
X0012221Y0096297D01*
X0012324Y0096367D01*
X0012429Y0096433D01*
X0012536Y0096497D01*
X0012645Y0096557D01*
X0012756Y0096613D01*
X0012868Y0096666D01*
X0012983Y0096715D01*
X0013098Y0096761D01*
X0013216Y0096802D01*
X0013334Y0096841D01*
X0013454Y0096875D01*
X0013574Y0096905D01*
X0013696Y0096932D01*
X0013818Y0096954D01*
X0013941Y0096973D01*
X0014064Y0096988D01*
X0014188Y0096999D01*
X0014313Y0097006D01*
X0014437Y0097009D01*
X0014561Y0097008D01*
X0014686Y0097003D01*
X0014810Y0096994D01*
X0014933Y0096981D01*
X0015057Y0096964D01*
X0015179Y0096944D01*
X0015301Y0096919D01*
X0015422Y0096890D01*
X0015542Y0096858D01*
X0015661Y0096822D01*
X0015779Y0096782D01*
X0015896Y0096738D01*
X0016011Y0096691D01*
X0016124Y0096640D01*
X0016236Y0096585D01*
X0016346Y0096527D01*
X0016454Y0096466D01*
X0016560Y0096401D01*
X0016664Y0096332D01*
X0016765Y0096261D01*
X0016865Y0096186D01*
X0016962Y0096108D01*
X0017056Y0096027D01*
X0017148Y0095943D01*
X0017237Y0095856D01*
X0017323Y0095766D01*
X0017406Y0095674D01*
X0017486Y0095579D01*
X0017564Y0095481D01*
X0017638Y0095381D01*
X0017709Y0095279D01*
X0017776Y0095175D01*
X0017840Y0095068D01*
X0017901Y0094959D01*
X0017958Y0094849D01*
X0018012Y0094737D01*
X0018062Y0094623D01*
X0018109Y0094508D01*
X0018151Y0094391D01*
X0018190Y0094273D01*
X0018226Y0094153D01*
X0018257Y0094033D01*
X0018284Y0093912D01*
X0018308Y0093790D01*
X0018328Y0093667D01*
X0018344Y0093543D01*
X0018356Y0093420D01*
X0018364Y0093296D01*
X0018368Y0093171D01*
X0018368Y0093047D01*
X0018364Y0092922D01*
X0018356Y0092798D01*
X0018344Y0092675D01*
X0018328Y0092551D01*
X0018308Y0092428D01*
X0018284Y0092306D01*
X0018257Y0092185D01*
X0018226Y0092065D01*
X0018190Y0091945D01*
X0018151Y0091827D01*
X0018109Y0091710D01*
X0018062Y0091595D01*
X0018012Y0091481D01*
X0017958Y0091369D01*
X0017901Y0091259D01*
X0017840Y0091150D01*
X0017776Y0091043D01*
X0017709Y0090939D01*
X0017638Y0090837D01*
X0017564Y0090737D01*
X0017486Y0090639D01*
X0017406Y0090544D01*
X0017323Y0090452D01*
X0017237Y0090362D01*
X0017148Y0090275D01*
X0017056Y0090191D01*
X0016962Y0090110D01*
X0016865Y0090032D01*
X0016765Y0089957D01*
X0016664Y0089886D01*
X0016560Y0089817D01*
X0016454Y0089752D01*
X0016346Y0089691D01*
X0016236Y0089633D01*
X0016124Y0089578D01*
X0016011Y0089527D01*
X0015896Y0089480D01*
X0015779Y0089436D01*
X0015661Y0089396D01*
X0015542Y0089360D01*
X0015422Y0089328D01*
X0015301Y0089299D01*
X0015179Y0089274D01*
X0015057Y0089254D01*
X0014933Y0089237D01*
X0014810Y0089224D01*
X0014686Y0089215D01*
X0014561Y0089210D01*
X0014437Y0089209D01*
X0014313Y0089212D01*
X0014188Y0089219D01*
X0014064Y0089230D01*
X0013941Y0089245D01*
X0013818Y0089264D01*
X0013696Y0089286D01*
X0013574Y0089313D01*
X0013454Y0089343D01*
X0013334Y0089377D01*
X0013216Y0089416D01*
X0013098Y0089457D01*
X0012983Y0089503D01*
X0012868Y0089552D01*
X0012756Y0089605D01*
X0012645Y0089661D01*
X0012536Y0089721D01*
X0012429Y0089785D01*
X0012324Y0089851D01*
X0012221Y0089921D01*
X0012121Y0089995D01*
X0012023Y0090071D01*
X0011927Y0090150D01*
X0011834Y0090233D01*
X0011743Y0090318D01*
X0011656Y0090407D01*
X0011571Y0090498D01*
X0011489Y0090592D01*
X0011411Y0090688D01*
X0011335Y0090787D01*
X0011262Y0090888D01*
X0011193Y0090991D01*
X0011127Y0091097D01*
X0011065Y0091204D01*
X0011006Y0091314D01*
X0010950Y0091425D01*
X0010898Y0091538D01*
X0010850Y0091653D01*
X0010806Y0091769D01*
X0010765Y0091886D01*
X0010728Y0092005D01*
X0010694Y0092125D01*
X0010665Y0092245D01*
X0010639Y0092367D01*
X0010617Y0092490D01*
X0010600Y0092613D01*
X0010586Y0092736D01*
X0010576Y0092860D01*
X0010570Y0092985D01*
X0010568Y0093109D01*
X0010468Y0089109D02*
X0018468Y0097109D01*
X0035568Y0073050D02*
X0035570Y0073174D01*
X0035576Y0073299D01*
X0035586Y0073423D01*
X0035600Y0073546D01*
X0035617Y0073669D01*
X0035639Y0073792D01*
X0035665Y0073914D01*
X0035694Y0074034D01*
X0035728Y0074154D01*
X0035765Y0074273D01*
X0035806Y0074390D01*
X0035850Y0074506D01*
X0035898Y0074621D01*
X0035950Y0074734D01*
X0036006Y0074845D01*
X0036065Y0074955D01*
X0036127Y0075062D01*
X0036193Y0075168D01*
X0036262Y0075271D01*
X0036335Y0075372D01*
X0036411Y0075471D01*
X0036489Y0075567D01*
X0036571Y0075661D01*
X0036656Y0075752D01*
X0036743Y0075841D01*
X0036834Y0075926D01*
X0036927Y0076009D01*
X0037023Y0076088D01*
X0037121Y0076164D01*
X0037221Y0076238D01*
X0037324Y0076308D01*
X0037429Y0076374D01*
X0037536Y0076438D01*
X0037645Y0076498D01*
X0037756Y0076554D01*
X0037868Y0076607D01*
X0037983Y0076656D01*
X0038098Y0076702D01*
X0038216Y0076743D01*
X0038334Y0076782D01*
X0038454Y0076816D01*
X0038574Y0076846D01*
X0038696Y0076873D01*
X0038818Y0076895D01*
X0038941Y0076914D01*
X0039064Y0076929D01*
X0039188Y0076940D01*
X0039313Y0076947D01*
X0039437Y0076950D01*
X0039561Y0076949D01*
X0039686Y0076944D01*
X0039810Y0076935D01*
X0039933Y0076922D01*
X0040057Y0076905D01*
X0040179Y0076885D01*
X0040301Y0076860D01*
X0040422Y0076831D01*
X0040542Y0076799D01*
X0040661Y0076763D01*
X0040779Y0076723D01*
X0040896Y0076679D01*
X0041011Y0076632D01*
X0041124Y0076581D01*
X0041236Y0076526D01*
X0041346Y0076468D01*
X0041454Y0076407D01*
X0041560Y0076342D01*
X0041664Y0076273D01*
X0041765Y0076202D01*
X0041865Y0076127D01*
X0041962Y0076049D01*
X0042056Y0075968D01*
X0042148Y0075884D01*
X0042237Y0075797D01*
X0042323Y0075707D01*
X0042406Y0075615D01*
X0042486Y0075520D01*
X0042564Y0075422D01*
X0042638Y0075322D01*
X0042709Y0075220D01*
X0042776Y0075116D01*
X0042840Y0075009D01*
X0042901Y0074900D01*
X0042958Y0074790D01*
X0043012Y0074678D01*
X0043062Y0074564D01*
X0043109Y0074449D01*
X0043151Y0074332D01*
X0043190Y0074214D01*
X0043226Y0074094D01*
X0043257Y0073974D01*
X0043284Y0073853D01*
X0043308Y0073731D01*
X0043328Y0073608D01*
X0043344Y0073484D01*
X0043356Y0073361D01*
X0043364Y0073237D01*
X0043368Y0073112D01*
X0043368Y0072988D01*
X0043364Y0072863D01*
X0043356Y0072739D01*
X0043344Y0072616D01*
X0043328Y0072492D01*
X0043308Y0072369D01*
X0043284Y0072247D01*
X0043257Y0072126D01*
X0043226Y0072006D01*
X0043190Y0071886D01*
X0043151Y0071768D01*
X0043109Y0071651D01*
X0043062Y0071536D01*
X0043012Y0071422D01*
X0042958Y0071310D01*
X0042901Y0071200D01*
X0042840Y0071091D01*
X0042776Y0070984D01*
X0042709Y0070880D01*
X0042638Y0070778D01*
X0042564Y0070678D01*
X0042486Y0070580D01*
X0042406Y0070485D01*
X0042323Y0070393D01*
X0042237Y0070303D01*
X0042148Y0070216D01*
X0042056Y0070132D01*
X0041962Y0070051D01*
X0041865Y0069973D01*
X0041765Y0069898D01*
X0041664Y0069827D01*
X0041560Y0069758D01*
X0041454Y0069693D01*
X0041346Y0069632D01*
X0041236Y0069574D01*
X0041124Y0069519D01*
X0041011Y0069468D01*
X0040896Y0069421D01*
X0040779Y0069377D01*
X0040661Y0069337D01*
X0040542Y0069301D01*
X0040422Y0069269D01*
X0040301Y0069240D01*
X0040179Y0069215D01*
X0040057Y0069195D01*
X0039933Y0069178D01*
X0039810Y0069165D01*
X0039686Y0069156D01*
X0039561Y0069151D01*
X0039437Y0069150D01*
X0039313Y0069153D01*
X0039188Y0069160D01*
X0039064Y0069171D01*
X0038941Y0069186D01*
X0038818Y0069205D01*
X0038696Y0069227D01*
X0038574Y0069254D01*
X0038454Y0069284D01*
X0038334Y0069318D01*
X0038216Y0069357D01*
X0038098Y0069398D01*
X0037983Y0069444D01*
X0037868Y0069493D01*
X0037756Y0069546D01*
X0037645Y0069602D01*
X0037536Y0069662D01*
X0037429Y0069726D01*
X0037324Y0069792D01*
X0037221Y0069862D01*
X0037121Y0069936D01*
X0037023Y0070012D01*
X0036927Y0070091D01*
X0036834Y0070174D01*
X0036743Y0070259D01*
X0036656Y0070348D01*
X0036571Y0070439D01*
X0036489Y0070533D01*
X0036411Y0070629D01*
X0036335Y0070728D01*
X0036262Y0070829D01*
X0036193Y0070932D01*
X0036127Y0071038D01*
X0036065Y0071145D01*
X0036006Y0071255D01*
X0035950Y0071366D01*
X0035898Y0071479D01*
X0035850Y0071594D01*
X0035806Y0071710D01*
X0035765Y0071827D01*
X0035728Y0071946D01*
X0035694Y0072066D01*
X0035665Y0072186D01*
X0035639Y0072308D01*
X0035617Y0072431D01*
X0035600Y0072554D01*
X0035586Y0072677D01*
X0035576Y0072801D01*
X0035570Y0072926D01*
X0035568Y0073050D01*
X0035468Y0069050D02*
X0043468Y0077050D01*
X0051818Y0073050D02*
X0051820Y0073174D01*
X0051826Y0073299D01*
X0051836Y0073423D01*
X0051850Y0073546D01*
X0051867Y0073669D01*
X0051889Y0073792D01*
X0051915Y0073914D01*
X0051944Y0074034D01*
X0051978Y0074154D01*
X0052015Y0074273D01*
X0052056Y0074390D01*
X0052100Y0074506D01*
X0052148Y0074621D01*
X0052200Y0074734D01*
X0052256Y0074845D01*
X0052315Y0074955D01*
X0052377Y0075062D01*
X0052443Y0075168D01*
X0052512Y0075271D01*
X0052585Y0075372D01*
X0052661Y0075471D01*
X0052739Y0075567D01*
X0052821Y0075661D01*
X0052906Y0075752D01*
X0052993Y0075841D01*
X0053084Y0075926D01*
X0053177Y0076009D01*
X0053273Y0076088D01*
X0053371Y0076164D01*
X0053471Y0076238D01*
X0053574Y0076308D01*
X0053679Y0076374D01*
X0053786Y0076438D01*
X0053895Y0076498D01*
X0054006Y0076554D01*
X0054118Y0076607D01*
X0054233Y0076656D01*
X0054348Y0076702D01*
X0054466Y0076743D01*
X0054584Y0076782D01*
X0054704Y0076816D01*
X0054824Y0076846D01*
X0054946Y0076873D01*
X0055068Y0076895D01*
X0055191Y0076914D01*
X0055314Y0076929D01*
X0055438Y0076940D01*
X0055563Y0076947D01*
X0055687Y0076950D01*
X0055811Y0076949D01*
X0055936Y0076944D01*
X0056060Y0076935D01*
X0056183Y0076922D01*
X0056307Y0076905D01*
X0056429Y0076885D01*
X0056551Y0076860D01*
X0056672Y0076831D01*
X0056792Y0076799D01*
X0056911Y0076763D01*
X0057029Y0076723D01*
X0057146Y0076679D01*
X0057261Y0076632D01*
X0057374Y0076581D01*
X0057486Y0076526D01*
X0057596Y0076468D01*
X0057704Y0076407D01*
X0057810Y0076342D01*
X0057914Y0076273D01*
X0058015Y0076202D01*
X0058115Y0076127D01*
X0058212Y0076049D01*
X0058306Y0075968D01*
X0058398Y0075884D01*
X0058487Y0075797D01*
X0058573Y0075707D01*
X0058656Y0075615D01*
X0058736Y0075520D01*
X0058814Y0075422D01*
X0058888Y0075322D01*
X0058959Y0075220D01*
X0059026Y0075116D01*
X0059090Y0075009D01*
X0059151Y0074900D01*
X0059208Y0074790D01*
X0059262Y0074678D01*
X0059312Y0074564D01*
X0059359Y0074449D01*
X0059401Y0074332D01*
X0059440Y0074214D01*
X0059476Y0074094D01*
X0059507Y0073974D01*
X0059534Y0073853D01*
X0059558Y0073731D01*
X0059578Y0073608D01*
X0059594Y0073484D01*
X0059606Y0073361D01*
X0059614Y0073237D01*
X0059618Y0073112D01*
X0059618Y0072988D01*
X0059614Y0072863D01*
X0059606Y0072739D01*
X0059594Y0072616D01*
X0059578Y0072492D01*
X0059558Y0072369D01*
X0059534Y0072247D01*
X0059507Y0072126D01*
X0059476Y0072006D01*
X0059440Y0071886D01*
X0059401Y0071768D01*
X0059359Y0071651D01*
X0059312Y0071536D01*
X0059262Y0071422D01*
X0059208Y0071310D01*
X0059151Y0071200D01*
X0059090Y0071091D01*
X0059026Y0070984D01*
X0058959Y0070880D01*
X0058888Y0070778D01*
X0058814Y0070678D01*
X0058736Y0070580D01*
X0058656Y0070485D01*
X0058573Y0070393D01*
X0058487Y0070303D01*
X0058398Y0070216D01*
X0058306Y0070132D01*
X0058212Y0070051D01*
X0058115Y0069973D01*
X0058015Y0069898D01*
X0057914Y0069827D01*
X0057810Y0069758D01*
X0057704Y0069693D01*
X0057596Y0069632D01*
X0057486Y0069574D01*
X0057374Y0069519D01*
X0057261Y0069468D01*
X0057146Y0069421D01*
X0057029Y0069377D01*
X0056911Y0069337D01*
X0056792Y0069301D01*
X0056672Y0069269D01*
X0056551Y0069240D01*
X0056429Y0069215D01*
X0056307Y0069195D01*
X0056183Y0069178D01*
X0056060Y0069165D01*
X0055936Y0069156D01*
X0055811Y0069151D01*
X0055687Y0069150D01*
X0055563Y0069153D01*
X0055438Y0069160D01*
X0055314Y0069171D01*
X0055191Y0069186D01*
X0055068Y0069205D01*
X0054946Y0069227D01*
X0054824Y0069254D01*
X0054704Y0069284D01*
X0054584Y0069318D01*
X0054466Y0069357D01*
X0054348Y0069398D01*
X0054233Y0069444D01*
X0054118Y0069493D01*
X0054006Y0069546D01*
X0053895Y0069602D01*
X0053786Y0069662D01*
X0053679Y0069726D01*
X0053574Y0069792D01*
X0053471Y0069862D01*
X0053371Y0069936D01*
X0053273Y0070012D01*
X0053177Y0070091D01*
X0053084Y0070174D01*
X0052993Y0070259D01*
X0052906Y0070348D01*
X0052821Y0070439D01*
X0052739Y0070533D01*
X0052661Y0070629D01*
X0052585Y0070728D01*
X0052512Y0070829D01*
X0052443Y0070932D01*
X0052377Y0071038D01*
X0052315Y0071145D01*
X0052256Y0071255D01*
X0052200Y0071366D01*
X0052148Y0071479D01*
X0052100Y0071594D01*
X0052056Y0071710D01*
X0052015Y0071827D01*
X0051978Y0071946D01*
X0051944Y0072066D01*
X0051915Y0072186D01*
X0051889Y0072308D01*
X0051867Y0072431D01*
X0051850Y0072554D01*
X0051836Y0072677D01*
X0051826Y0072801D01*
X0051820Y0072926D01*
X0051818Y0073050D01*
X0051718Y0069050D02*
X0059718Y0077050D01*
X0040618Y0065550D02*
X0032618Y0065550D01*
X0036618Y0061550D02*
X0036618Y0069550D01*
X0035618Y0065550D02*
X0027618Y0065550D01*
X0031618Y0061550D02*
X0031618Y0069550D01*
X0021197Y0068207D02*
X0021199Y0068331D01*
X0021205Y0068456D01*
X0021215Y0068580D01*
X0021229Y0068703D01*
X0021246Y0068826D01*
X0021268Y0068949D01*
X0021294Y0069071D01*
X0021323Y0069191D01*
X0021357Y0069311D01*
X0021394Y0069430D01*
X0021435Y0069547D01*
X0021479Y0069663D01*
X0021527Y0069778D01*
X0021579Y0069891D01*
X0021635Y0070002D01*
X0021694Y0070112D01*
X0021756Y0070219D01*
X0021822Y0070325D01*
X0021891Y0070428D01*
X0021964Y0070529D01*
X0022040Y0070628D01*
X0022118Y0070724D01*
X0022200Y0070818D01*
X0022285Y0070909D01*
X0022372Y0070998D01*
X0022463Y0071083D01*
X0022556Y0071166D01*
X0022652Y0071245D01*
X0022750Y0071321D01*
X0022850Y0071395D01*
X0022953Y0071465D01*
X0023058Y0071531D01*
X0023165Y0071595D01*
X0023274Y0071655D01*
X0023385Y0071711D01*
X0023497Y0071764D01*
X0023612Y0071813D01*
X0023727Y0071859D01*
X0023845Y0071900D01*
X0023963Y0071939D01*
X0024083Y0071973D01*
X0024203Y0072003D01*
X0024325Y0072030D01*
X0024447Y0072052D01*
X0024570Y0072071D01*
X0024693Y0072086D01*
X0024817Y0072097D01*
X0024942Y0072104D01*
X0025066Y0072107D01*
X0025190Y0072106D01*
X0025315Y0072101D01*
X0025439Y0072092D01*
X0025562Y0072079D01*
X0025686Y0072062D01*
X0025808Y0072042D01*
X0025930Y0072017D01*
X0026051Y0071988D01*
X0026171Y0071956D01*
X0026290Y0071920D01*
X0026408Y0071880D01*
X0026525Y0071836D01*
X0026640Y0071789D01*
X0026753Y0071738D01*
X0026865Y0071683D01*
X0026975Y0071625D01*
X0027083Y0071564D01*
X0027189Y0071499D01*
X0027293Y0071430D01*
X0027394Y0071359D01*
X0027494Y0071284D01*
X0027591Y0071206D01*
X0027685Y0071125D01*
X0027777Y0071041D01*
X0027866Y0070954D01*
X0027952Y0070864D01*
X0028035Y0070772D01*
X0028115Y0070677D01*
X0028193Y0070579D01*
X0028267Y0070479D01*
X0028338Y0070377D01*
X0028405Y0070273D01*
X0028469Y0070166D01*
X0028530Y0070057D01*
X0028587Y0069947D01*
X0028641Y0069835D01*
X0028691Y0069721D01*
X0028738Y0069606D01*
X0028780Y0069489D01*
X0028819Y0069371D01*
X0028855Y0069251D01*
X0028886Y0069131D01*
X0028913Y0069010D01*
X0028937Y0068888D01*
X0028957Y0068765D01*
X0028973Y0068641D01*
X0028985Y0068518D01*
X0028993Y0068394D01*
X0028997Y0068269D01*
X0028997Y0068145D01*
X0028993Y0068020D01*
X0028985Y0067896D01*
X0028973Y0067773D01*
X0028957Y0067649D01*
X0028937Y0067526D01*
X0028913Y0067404D01*
X0028886Y0067283D01*
X0028855Y0067163D01*
X0028819Y0067043D01*
X0028780Y0066925D01*
X0028738Y0066808D01*
X0028691Y0066693D01*
X0028641Y0066579D01*
X0028587Y0066467D01*
X0028530Y0066357D01*
X0028469Y0066248D01*
X0028405Y0066141D01*
X0028338Y0066037D01*
X0028267Y0065935D01*
X0028193Y0065835D01*
X0028115Y0065737D01*
X0028035Y0065642D01*
X0027952Y0065550D01*
X0027866Y0065460D01*
X0027777Y0065373D01*
X0027685Y0065289D01*
X0027591Y0065208D01*
X0027494Y0065130D01*
X0027394Y0065055D01*
X0027293Y0064984D01*
X0027189Y0064915D01*
X0027083Y0064850D01*
X0026975Y0064789D01*
X0026865Y0064731D01*
X0026753Y0064676D01*
X0026640Y0064625D01*
X0026525Y0064578D01*
X0026408Y0064534D01*
X0026290Y0064494D01*
X0026171Y0064458D01*
X0026051Y0064426D01*
X0025930Y0064397D01*
X0025808Y0064372D01*
X0025686Y0064352D01*
X0025562Y0064335D01*
X0025439Y0064322D01*
X0025315Y0064313D01*
X0025190Y0064308D01*
X0025066Y0064307D01*
X0024942Y0064310D01*
X0024817Y0064317D01*
X0024693Y0064328D01*
X0024570Y0064343D01*
X0024447Y0064362D01*
X0024325Y0064384D01*
X0024203Y0064411D01*
X0024083Y0064441D01*
X0023963Y0064475D01*
X0023845Y0064514D01*
X0023727Y0064555D01*
X0023612Y0064601D01*
X0023497Y0064650D01*
X0023385Y0064703D01*
X0023274Y0064759D01*
X0023165Y0064819D01*
X0023058Y0064883D01*
X0022953Y0064949D01*
X0022850Y0065019D01*
X0022750Y0065093D01*
X0022652Y0065169D01*
X0022556Y0065248D01*
X0022463Y0065331D01*
X0022372Y0065416D01*
X0022285Y0065505D01*
X0022200Y0065596D01*
X0022118Y0065690D01*
X0022040Y0065786D01*
X0021964Y0065885D01*
X0021891Y0065986D01*
X0021822Y0066089D01*
X0021756Y0066195D01*
X0021694Y0066302D01*
X0021635Y0066412D01*
X0021579Y0066523D01*
X0021527Y0066636D01*
X0021479Y0066751D01*
X0021435Y0066867D01*
X0021394Y0066984D01*
X0021357Y0067103D01*
X0021323Y0067223D01*
X0021294Y0067343D01*
X0021268Y0067465D01*
X0021246Y0067588D01*
X0021229Y0067711D01*
X0021215Y0067834D01*
X0021205Y0067958D01*
X0021199Y0068083D01*
X0021197Y0068207D01*
X0021097Y0064207D02*
X0029097Y0072207D01*
X0010568Y0062991D02*
X0010570Y0063115D01*
X0010576Y0063240D01*
X0010586Y0063364D01*
X0010600Y0063487D01*
X0010617Y0063610D01*
X0010639Y0063733D01*
X0010665Y0063855D01*
X0010694Y0063975D01*
X0010728Y0064095D01*
X0010765Y0064214D01*
X0010806Y0064331D01*
X0010850Y0064447D01*
X0010898Y0064562D01*
X0010950Y0064675D01*
X0011006Y0064786D01*
X0011065Y0064896D01*
X0011127Y0065003D01*
X0011193Y0065109D01*
X0011262Y0065212D01*
X0011335Y0065313D01*
X0011411Y0065412D01*
X0011489Y0065508D01*
X0011571Y0065602D01*
X0011656Y0065693D01*
X0011743Y0065782D01*
X0011834Y0065867D01*
X0011927Y0065950D01*
X0012023Y0066029D01*
X0012121Y0066105D01*
X0012221Y0066179D01*
X0012324Y0066249D01*
X0012429Y0066315D01*
X0012536Y0066379D01*
X0012645Y0066439D01*
X0012756Y0066495D01*
X0012868Y0066548D01*
X0012983Y0066597D01*
X0013098Y0066643D01*
X0013216Y0066684D01*
X0013334Y0066723D01*
X0013454Y0066757D01*
X0013574Y0066787D01*
X0013696Y0066814D01*
X0013818Y0066836D01*
X0013941Y0066855D01*
X0014064Y0066870D01*
X0014188Y0066881D01*
X0014313Y0066888D01*
X0014437Y0066891D01*
X0014561Y0066890D01*
X0014686Y0066885D01*
X0014810Y0066876D01*
X0014933Y0066863D01*
X0015057Y0066846D01*
X0015179Y0066826D01*
X0015301Y0066801D01*
X0015422Y0066772D01*
X0015542Y0066740D01*
X0015661Y0066704D01*
X0015779Y0066664D01*
X0015896Y0066620D01*
X0016011Y0066573D01*
X0016124Y0066522D01*
X0016236Y0066467D01*
X0016346Y0066409D01*
X0016454Y0066348D01*
X0016560Y0066283D01*
X0016664Y0066214D01*
X0016765Y0066143D01*
X0016865Y0066068D01*
X0016962Y0065990D01*
X0017056Y0065909D01*
X0017148Y0065825D01*
X0017237Y0065738D01*
X0017323Y0065648D01*
X0017406Y0065556D01*
X0017486Y0065461D01*
X0017564Y0065363D01*
X0017638Y0065263D01*
X0017709Y0065161D01*
X0017776Y0065057D01*
X0017840Y0064950D01*
X0017901Y0064841D01*
X0017958Y0064731D01*
X0018012Y0064619D01*
X0018062Y0064505D01*
X0018109Y0064390D01*
X0018151Y0064273D01*
X0018190Y0064155D01*
X0018226Y0064035D01*
X0018257Y0063915D01*
X0018284Y0063794D01*
X0018308Y0063672D01*
X0018328Y0063549D01*
X0018344Y0063425D01*
X0018356Y0063302D01*
X0018364Y0063178D01*
X0018368Y0063053D01*
X0018368Y0062929D01*
X0018364Y0062804D01*
X0018356Y0062680D01*
X0018344Y0062557D01*
X0018328Y0062433D01*
X0018308Y0062310D01*
X0018284Y0062188D01*
X0018257Y0062067D01*
X0018226Y0061947D01*
X0018190Y0061827D01*
X0018151Y0061709D01*
X0018109Y0061592D01*
X0018062Y0061477D01*
X0018012Y0061363D01*
X0017958Y0061251D01*
X0017901Y0061141D01*
X0017840Y0061032D01*
X0017776Y0060925D01*
X0017709Y0060821D01*
X0017638Y0060719D01*
X0017564Y0060619D01*
X0017486Y0060521D01*
X0017406Y0060426D01*
X0017323Y0060334D01*
X0017237Y0060244D01*
X0017148Y0060157D01*
X0017056Y0060073D01*
X0016962Y0059992D01*
X0016865Y0059914D01*
X0016765Y0059839D01*
X0016664Y0059768D01*
X0016560Y0059699D01*
X0016454Y0059634D01*
X0016346Y0059573D01*
X0016236Y0059515D01*
X0016124Y0059460D01*
X0016011Y0059409D01*
X0015896Y0059362D01*
X0015779Y0059318D01*
X0015661Y0059278D01*
X0015542Y0059242D01*
X0015422Y0059210D01*
X0015301Y0059181D01*
X0015179Y0059156D01*
X0015057Y0059136D01*
X0014933Y0059119D01*
X0014810Y0059106D01*
X0014686Y0059097D01*
X0014561Y0059092D01*
X0014437Y0059091D01*
X0014313Y0059094D01*
X0014188Y0059101D01*
X0014064Y0059112D01*
X0013941Y0059127D01*
X0013818Y0059146D01*
X0013696Y0059168D01*
X0013574Y0059195D01*
X0013454Y0059225D01*
X0013334Y0059259D01*
X0013216Y0059298D01*
X0013098Y0059339D01*
X0012983Y0059385D01*
X0012868Y0059434D01*
X0012756Y0059487D01*
X0012645Y0059543D01*
X0012536Y0059603D01*
X0012429Y0059667D01*
X0012324Y0059733D01*
X0012221Y0059803D01*
X0012121Y0059877D01*
X0012023Y0059953D01*
X0011927Y0060032D01*
X0011834Y0060115D01*
X0011743Y0060200D01*
X0011656Y0060289D01*
X0011571Y0060380D01*
X0011489Y0060474D01*
X0011411Y0060570D01*
X0011335Y0060669D01*
X0011262Y0060770D01*
X0011193Y0060873D01*
X0011127Y0060979D01*
X0011065Y0061086D01*
X0011006Y0061196D01*
X0010950Y0061307D01*
X0010898Y0061420D01*
X0010850Y0061535D01*
X0010806Y0061651D01*
X0010765Y0061768D01*
X0010728Y0061887D01*
X0010694Y0062007D01*
X0010665Y0062127D01*
X0010639Y0062249D01*
X0010617Y0062372D01*
X0010600Y0062495D01*
X0010586Y0062618D01*
X0010576Y0062742D01*
X0010570Y0062867D01*
X0010568Y0062991D01*
X0010468Y0058991D02*
X0018468Y0066991D01*
X0015118Y0055550D02*
X0023118Y0055550D01*
X0019118Y0051550D02*
X0019118Y0059550D01*
X0020118Y0055550D02*
X0028118Y0055550D01*
X0024118Y0051550D02*
X0024118Y0059550D01*
X0018118Y0055550D02*
X0010118Y0055550D01*
X0014118Y0051550D02*
X0014118Y0059550D01*
X0010118Y0049300D02*
X0018118Y0049300D01*
X0014118Y0045300D02*
X0014118Y0053300D01*
X0015118Y0049300D02*
X0023118Y0049300D01*
X0019118Y0045300D02*
X0019118Y0053300D01*
X0020118Y0049300D02*
X0028118Y0049300D01*
X0024118Y0045300D02*
X0024118Y0053300D01*
X0029493Y0049925D02*
X0037493Y0049925D01*
X0033493Y0045925D02*
X0033493Y0053925D01*
X0039318Y0059300D02*
X0039320Y0059424D01*
X0039326Y0059549D01*
X0039336Y0059673D01*
X0039350Y0059796D01*
X0039367Y0059919D01*
X0039389Y0060042D01*
X0039415Y0060164D01*
X0039444Y0060284D01*
X0039478Y0060404D01*
X0039515Y0060523D01*
X0039556Y0060640D01*
X0039600Y0060756D01*
X0039648Y0060871D01*
X0039700Y0060984D01*
X0039756Y0061095D01*
X0039815Y0061205D01*
X0039877Y0061312D01*
X0039943Y0061418D01*
X0040012Y0061521D01*
X0040085Y0061622D01*
X0040161Y0061721D01*
X0040239Y0061817D01*
X0040321Y0061911D01*
X0040406Y0062002D01*
X0040493Y0062091D01*
X0040584Y0062176D01*
X0040677Y0062259D01*
X0040773Y0062338D01*
X0040871Y0062414D01*
X0040971Y0062488D01*
X0041074Y0062558D01*
X0041179Y0062624D01*
X0041286Y0062688D01*
X0041395Y0062748D01*
X0041506Y0062804D01*
X0041618Y0062857D01*
X0041733Y0062906D01*
X0041848Y0062952D01*
X0041966Y0062993D01*
X0042084Y0063032D01*
X0042204Y0063066D01*
X0042324Y0063096D01*
X0042446Y0063123D01*
X0042568Y0063145D01*
X0042691Y0063164D01*
X0042814Y0063179D01*
X0042938Y0063190D01*
X0043063Y0063197D01*
X0043187Y0063200D01*
X0043311Y0063199D01*
X0043436Y0063194D01*
X0043560Y0063185D01*
X0043683Y0063172D01*
X0043807Y0063155D01*
X0043929Y0063135D01*
X0044051Y0063110D01*
X0044172Y0063081D01*
X0044292Y0063049D01*
X0044411Y0063013D01*
X0044529Y0062973D01*
X0044646Y0062929D01*
X0044761Y0062882D01*
X0044874Y0062831D01*
X0044986Y0062776D01*
X0045096Y0062718D01*
X0045204Y0062657D01*
X0045310Y0062592D01*
X0045414Y0062523D01*
X0045515Y0062452D01*
X0045615Y0062377D01*
X0045712Y0062299D01*
X0045806Y0062218D01*
X0045898Y0062134D01*
X0045987Y0062047D01*
X0046073Y0061957D01*
X0046156Y0061865D01*
X0046236Y0061770D01*
X0046314Y0061672D01*
X0046388Y0061572D01*
X0046459Y0061470D01*
X0046526Y0061366D01*
X0046590Y0061259D01*
X0046651Y0061150D01*
X0046708Y0061040D01*
X0046762Y0060928D01*
X0046812Y0060814D01*
X0046859Y0060699D01*
X0046901Y0060582D01*
X0046940Y0060464D01*
X0046976Y0060344D01*
X0047007Y0060224D01*
X0047034Y0060103D01*
X0047058Y0059981D01*
X0047078Y0059858D01*
X0047094Y0059734D01*
X0047106Y0059611D01*
X0047114Y0059487D01*
X0047118Y0059362D01*
X0047118Y0059238D01*
X0047114Y0059113D01*
X0047106Y0058989D01*
X0047094Y0058866D01*
X0047078Y0058742D01*
X0047058Y0058619D01*
X0047034Y0058497D01*
X0047007Y0058376D01*
X0046976Y0058256D01*
X0046940Y0058136D01*
X0046901Y0058018D01*
X0046859Y0057901D01*
X0046812Y0057786D01*
X0046762Y0057672D01*
X0046708Y0057560D01*
X0046651Y0057450D01*
X0046590Y0057341D01*
X0046526Y0057234D01*
X0046459Y0057130D01*
X0046388Y0057028D01*
X0046314Y0056928D01*
X0046236Y0056830D01*
X0046156Y0056735D01*
X0046073Y0056643D01*
X0045987Y0056553D01*
X0045898Y0056466D01*
X0045806Y0056382D01*
X0045712Y0056301D01*
X0045615Y0056223D01*
X0045515Y0056148D01*
X0045414Y0056077D01*
X0045310Y0056008D01*
X0045204Y0055943D01*
X0045096Y0055882D01*
X0044986Y0055824D01*
X0044874Y0055769D01*
X0044761Y0055718D01*
X0044646Y0055671D01*
X0044529Y0055627D01*
X0044411Y0055587D01*
X0044292Y0055551D01*
X0044172Y0055519D01*
X0044051Y0055490D01*
X0043929Y0055465D01*
X0043807Y0055445D01*
X0043683Y0055428D01*
X0043560Y0055415D01*
X0043436Y0055406D01*
X0043311Y0055401D01*
X0043187Y0055400D01*
X0043063Y0055403D01*
X0042938Y0055410D01*
X0042814Y0055421D01*
X0042691Y0055436D01*
X0042568Y0055455D01*
X0042446Y0055477D01*
X0042324Y0055504D01*
X0042204Y0055534D01*
X0042084Y0055568D01*
X0041966Y0055607D01*
X0041848Y0055648D01*
X0041733Y0055694D01*
X0041618Y0055743D01*
X0041506Y0055796D01*
X0041395Y0055852D01*
X0041286Y0055912D01*
X0041179Y0055976D01*
X0041074Y0056042D01*
X0040971Y0056112D01*
X0040871Y0056186D01*
X0040773Y0056262D01*
X0040677Y0056341D01*
X0040584Y0056424D01*
X0040493Y0056509D01*
X0040406Y0056598D01*
X0040321Y0056689D01*
X0040239Y0056783D01*
X0040161Y0056879D01*
X0040085Y0056978D01*
X0040012Y0057079D01*
X0039943Y0057182D01*
X0039877Y0057288D01*
X0039815Y0057395D01*
X0039756Y0057505D01*
X0039700Y0057616D01*
X0039648Y0057729D01*
X0039600Y0057844D01*
X0039556Y0057960D01*
X0039515Y0058077D01*
X0039478Y0058196D01*
X0039444Y0058316D01*
X0039415Y0058436D01*
X0039389Y0058558D01*
X0039367Y0058681D01*
X0039350Y0058804D01*
X0039336Y0058927D01*
X0039326Y0059051D01*
X0039320Y0059176D01*
X0039318Y0059300D01*
X0039218Y0055300D02*
X0047218Y0063300D01*
X0063593Y0053050D02*
X0071593Y0053050D01*
X0067593Y0049050D02*
X0067593Y0057050D01*
X0071993Y0051175D02*
X0079993Y0051175D01*
X0075993Y0047175D02*
X0075993Y0055175D01*
X0075743Y0047425D02*
X0083743Y0047425D01*
X0079743Y0043425D02*
X0079743Y0051425D01*
X0084493Y0053050D02*
X0092493Y0053050D01*
X0088493Y0049050D02*
X0088493Y0057050D01*
X0088243Y0049300D02*
X0096243Y0049300D01*
X0092243Y0045300D02*
X0092243Y0053300D01*
X0091993Y0045550D02*
X0099993Y0045550D01*
X0095993Y0041550D02*
X0095993Y0049550D01*
X0100743Y0049300D02*
X0108743Y0049300D01*
X0104743Y0045300D02*
X0104743Y0053300D01*
X0115568Y0063100D02*
X0123568Y0063100D01*
X0119568Y0059100D02*
X0119568Y0067100D01*
X0130468Y0057425D02*
X0138468Y0057425D01*
X0134468Y0053425D02*
X0134468Y0061425D01*
X0128118Y0051175D02*
X0120118Y0051175D01*
X0124118Y0047175D02*
X0124118Y0055175D01*
X0123868Y0047425D02*
X0131868Y0047425D01*
X0127868Y0043425D02*
X0127868Y0051425D01*
X0128743Y0043675D02*
X0120743Y0043675D01*
X0124743Y0039675D02*
X0124743Y0047675D01*
X0127493Y0038050D02*
X0119493Y0038050D01*
X0123493Y0034050D02*
X0123493Y0042050D01*
X0129493Y0038050D02*
X0137493Y0038050D01*
X0133493Y0034050D02*
X0133493Y0042050D01*
X0127493Y0033050D02*
X0119493Y0033050D01*
X0123493Y0029050D02*
X0123493Y0037050D01*
X0119493Y0028050D02*
X0127493Y0028050D01*
X0123493Y0024050D02*
X0123493Y0032050D01*
X0119493Y0023050D02*
X0127493Y0023050D01*
X0123493Y0019050D02*
X0123493Y0027050D01*
X0122618Y0019300D02*
X0130618Y0019300D01*
X0126618Y0015300D02*
X0126618Y0023300D01*
X0133018Y0027425D02*
X0133020Y0027549D01*
X0133026Y0027674D01*
X0133036Y0027798D01*
X0133050Y0027921D01*
X0133067Y0028044D01*
X0133089Y0028167D01*
X0133115Y0028289D01*
X0133144Y0028409D01*
X0133178Y0028529D01*
X0133215Y0028648D01*
X0133256Y0028765D01*
X0133300Y0028881D01*
X0133348Y0028996D01*
X0133400Y0029109D01*
X0133456Y0029220D01*
X0133515Y0029330D01*
X0133577Y0029437D01*
X0133643Y0029543D01*
X0133712Y0029646D01*
X0133785Y0029747D01*
X0133861Y0029846D01*
X0133939Y0029942D01*
X0134021Y0030036D01*
X0134106Y0030127D01*
X0134193Y0030216D01*
X0134284Y0030301D01*
X0134377Y0030384D01*
X0134473Y0030463D01*
X0134571Y0030539D01*
X0134671Y0030613D01*
X0134774Y0030683D01*
X0134879Y0030749D01*
X0134986Y0030813D01*
X0135095Y0030873D01*
X0135206Y0030929D01*
X0135318Y0030982D01*
X0135433Y0031031D01*
X0135548Y0031077D01*
X0135666Y0031118D01*
X0135784Y0031157D01*
X0135904Y0031191D01*
X0136024Y0031221D01*
X0136146Y0031248D01*
X0136268Y0031270D01*
X0136391Y0031289D01*
X0136514Y0031304D01*
X0136638Y0031315D01*
X0136763Y0031322D01*
X0136887Y0031325D01*
X0137011Y0031324D01*
X0137136Y0031319D01*
X0137260Y0031310D01*
X0137383Y0031297D01*
X0137507Y0031280D01*
X0137629Y0031260D01*
X0137751Y0031235D01*
X0137872Y0031206D01*
X0137992Y0031174D01*
X0138111Y0031138D01*
X0138229Y0031098D01*
X0138346Y0031054D01*
X0138461Y0031007D01*
X0138574Y0030956D01*
X0138686Y0030901D01*
X0138796Y0030843D01*
X0138904Y0030782D01*
X0139010Y0030717D01*
X0139114Y0030648D01*
X0139215Y0030577D01*
X0139315Y0030502D01*
X0139412Y0030424D01*
X0139506Y0030343D01*
X0139598Y0030259D01*
X0139687Y0030172D01*
X0139773Y0030082D01*
X0139856Y0029990D01*
X0139936Y0029895D01*
X0140014Y0029797D01*
X0140088Y0029697D01*
X0140159Y0029595D01*
X0140226Y0029491D01*
X0140290Y0029384D01*
X0140351Y0029275D01*
X0140408Y0029165D01*
X0140462Y0029053D01*
X0140512Y0028939D01*
X0140559Y0028824D01*
X0140601Y0028707D01*
X0140640Y0028589D01*
X0140676Y0028469D01*
X0140707Y0028349D01*
X0140734Y0028228D01*
X0140758Y0028106D01*
X0140778Y0027983D01*
X0140794Y0027859D01*
X0140806Y0027736D01*
X0140814Y0027612D01*
X0140818Y0027487D01*
X0140818Y0027363D01*
X0140814Y0027238D01*
X0140806Y0027114D01*
X0140794Y0026991D01*
X0140778Y0026867D01*
X0140758Y0026744D01*
X0140734Y0026622D01*
X0140707Y0026501D01*
X0140676Y0026381D01*
X0140640Y0026261D01*
X0140601Y0026143D01*
X0140559Y0026026D01*
X0140512Y0025911D01*
X0140462Y0025797D01*
X0140408Y0025685D01*
X0140351Y0025575D01*
X0140290Y0025466D01*
X0140226Y0025359D01*
X0140159Y0025255D01*
X0140088Y0025153D01*
X0140014Y0025053D01*
X0139936Y0024955D01*
X0139856Y0024860D01*
X0139773Y0024768D01*
X0139687Y0024678D01*
X0139598Y0024591D01*
X0139506Y0024507D01*
X0139412Y0024426D01*
X0139315Y0024348D01*
X0139215Y0024273D01*
X0139114Y0024202D01*
X0139010Y0024133D01*
X0138904Y0024068D01*
X0138796Y0024007D01*
X0138686Y0023949D01*
X0138574Y0023894D01*
X0138461Y0023843D01*
X0138346Y0023796D01*
X0138229Y0023752D01*
X0138111Y0023712D01*
X0137992Y0023676D01*
X0137872Y0023644D01*
X0137751Y0023615D01*
X0137629Y0023590D01*
X0137507Y0023570D01*
X0137383Y0023553D01*
X0137260Y0023540D01*
X0137136Y0023531D01*
X0137011Y0023526D01*
X0136887Y0023525D01*
X0136763Y0023528D01*
X0136638Y0023535D01*
X0136514Y0023546D01*
X0136391Y0023561D01*
X0136268Y0023580D01*
X0136146Y0023602D01*
X0136024Y0023629D01*
X0135904Y0023659D01*
X0135784Y0023693D01*
X0135666Y0023732D01*
X0135548Y0023773D01*
X0135433Y0023819D01*
X0135318Y0023868D01*
X0135206Y0023921D01*
X0135095Y0023977D01*
X0134986Y0024037D01*
X0134879Y0024101D01*
X0134774Y0024167D01*
X0134671Y0024237D01*
X0134571Y0024311D01*
X0134473Y0024387D01*
X0134377Y0024466D01*
X0134284Y0024549D01*
X0134193Y0024634D01*
X0134106Y0024723D01*
X0134021Y0024814D01*
X0133939Y0024908D01*
X0133861Y0025004D01*
X0133785Y0025103D01*
X0133712Y0025204D01*
X0133643Y0025307D01*
X0133577Y0025413D01*
X0133515Y0025520D01*
X0133456Y0025630D01*
X0133400Y0025741D01*
X0133348Y0025854D01*
X0133300Y0025969D01*
X0133256Y0026085D01*
X0133215Y0026202D01*
X0133178Y0026321D01*
X0133144Y0026441D01*
X0133115Y0026561D01*
X0133089Y0026683D01*
X0133067Y0026806D01*
X0133050Y0026929D01*
X0133036Y0027052D01*
X0133026Y0027176D01*
X0133020Y0027301D01*
X0133018Y0027425D01*
X0132918Y0023425D02*
X0140918Y0031425D01*
X0145118Y0031175D02*
X0153118Y0031175D01*
X0149118Y0027175D02*
X0149118Y0035175D01*
X0145118Y0036175D02*
X0153118Y0036175D01*
X0149118Y0032175D02*
X0149118Y0040175D01*
X0145118Y0041175D02*
X0153118Y0041175D01*
X0149118Y0037175D02*
X0149118Y0045175D01*
X0145118Y0046175D02*
X0153118Y0046175D01*
X0149118Y0042175D02*
X0149118Y0050175D01*
X0145118Y0051175D02*
X0153118Y0051175D01*
X0149118Y0047175D02*
X0149118Y0055175D01*
X0145118Y0056175D02*
X0153118Y0056175D01*
X0149118Y0052175D02*
X0149118Y0060175D01*
X0145118Y0061175D02*
X0153118Y0061175D01*
X0149118Y0057175D02*
X0149118Y0065175D01*
X0145118Y0066175D02*
X0153118Y0066175D01*
X0149118Y0062175D02*
X0149118Y0070175D01*
X0145118Y0071175D02*
X0153118Y0071175D01*
X0149118Y0067175D02*
X0149118Y0075175D01*
X0145118Y0076175D02*
X0153118Y0076175D01*
X0149118Y0072175D02*
X0149118Y0080175D01*
X0145118Y0081175D02*
X0153118Y0081175D01*
X0149118Y0077175D02*
X0149118Y0085175D01*
X0145118Y0086175D02*
X0153118Y0086175D01*
X0149118Y0082175D02*
X0149118Y0090175D01*
X0145118Y0091175D02*
X0153118Y0091175D01*
X0149118Y0087175D02*
X0149118Y0095175D01*
X0145118Y0096175D02*
X0153118Y0096175D01*
X0149118Y0092175D02*
X0149118Y0100175D01*
X0148118Y0096175D02*
X0140118Y0096175D01*
X0144118Y0092175D02*
X0144118Y0100175D01*
X0141243Y0096175D02*
X0133243Y0096175D01*
X0137243Y0092175D02*
X0137243Y0100175D01*
X0134993Y0096175D02*
X0126993Y0096175D01*
X0130993Y0092175D02*
X0130993Y0100175D01*
X0129993Y0096175D02*
X0121993Y0096175D01*
X0125993Y0092175D02*
X0125993Y0100175D01*
X0124993Y0096175D02*
X0116993Y0096175D01*
X0120993Y0092175D02*
X0120993Y0100175D01*
X0119993Y0096175D02*
X0111993Y0096175D01*
X0115993Y0092175D02*
X0115993Y0100175D01*
X0106243Y0096175D02*
X0098243Y0096175D01*
X0102243Y0092175D02*
X0102243Y0100175D01*
X0095618Y0096175D02*
X0087618Y0096175D01*
X0091618Y0092175D02*
X0091618Y0100175D01*
X0109218Y0082300D02*
X0117218Y0082300D01*
X0113218Y0078300D02*
X0113218Y0086300D01*
X0114843Y0084300D02*
X0122843Y0084300D01*
X0118843Y0080300D02*
X0118843Y0088300D01*
X0120743Y0086800D02*
X0128743Y0086800D01*
X0124743Y0082800D02*
X0124743Y0090800D01*
X0130468Y0091800D02*
X0138468Y0091800D01*
X0134468Y0087800D02*
X0134468Y0095800D01*
X0136093Y0091800D02*
X0144093Y0091800D01*
X0140093Y0087800D02*
X0140093Y0095800D01*
X0105968Y0080550D02*
X0097968Y0080550D01*
X0101968Y0076550D02*
X0101968Y0084550D01*
X0100343Y0079300D02*
X0092343Y0079300D01*
X0096343Y0075300D02*
X0096343Y0083300D01*
X0095618Y0081175D02*
X0087618Y0081175D01*
X0091618Y0077175D02*
X0091618Y0085175D01*
X0087618Y0076800D02*
X0095618Y0076800D01*
X0091618Y0072800D02*
X0091618Y0080800D01*
X0090468Y0067425D02*
X0098468Y0067425D01*
X0094468Y0063425D02*
X0094468Y0071425D01*
X0095468Y0064925D02*
X0103468Y0064925D01*
X0099468Y0060925D02*
X0099468Y0068925D01*
X0078743Y0045550D02*
X0070743Y0045550D01*
X0074743Y0041550D02*
X0074743Y0049550D01*
X0079493Y0043675D02*
X0087493Y0043675D01*
X0083493Y0039675D02*
X0083493Y0047675D01*
X0083243Y0039925D02*
X0091243Y0039925D01*
X0087243Y0035925D02*
X0087243Y0043925D01*
X0086993Y0036175D02*
X0094993Y0036175D01*
X0090993Y0032175D02*
X0090993Y0040175D01*
X0105418Y0027425D02*
X0105420Y0027549D01*
X0105426Y0027674D01*
X0105436Y0027798D01*
X0105450Y0027921D01*
X0105467Y0028044D01*
X0105489Y0028167D01*
X0105515Y0028289D01*
X0105544Y0028409D01*
X0105578Y0028529D01*
X0105615Y0028648D01*
X0105656Y0028765D01*
X0105700Y0028881D01*
X0105748Y0028996D01*
X0105800Y0029109D01*
X0105856Y0029220D01*
X0105915Y0029330D01*
X0105977Y0029437D01*
X0106043Y0029543D01*
X0106112Y0029646D01*
X0106185Y0029747D01*
X0106261Y0029846D01*
X0106339Y0029942D01*
X0106421Y0030036D01*
X0106506Y0030127D01*
X0106593Y0030216D01*
X0106684Y0030301D01*
X0106777Y0030384D01*
X0106873Y0030463D01*
X0106971Y0030539D01*
X0107071Y0030613D01*
X0107174Y0030683D01*
X0107279Y0030749D01*
X0107386Y0030813D01*
X0107495Y0030873D01*
X0107606Y0030929D01*
X0107718Y0030982D01*
X0107833Y0031031D01*
X0107948Y0031077D01*
X0108066Y0031118D01*
X0108184Y0031157D01*
X0108304Y0031191D01*
X0108424Y0031221D01*
X0108546Y0031248D01*
X0108668Y0031270D01*
X0108791Y0031289D01*
X0108914Y0031304D01*
X0109038Y0031315D01*
X0109163Y0031322D01*
X0109287Y0031325D01*
X0109411Y0031324D01*
X0109536Y0031319D01*
X0109660Y0031310D01*
X0109783Y0031297D01*
X0109907Y0031280D01*
X0110029Y0031260D01*
X0110151Y0031235D01*
X0110272Y0031206D01*
X0110392Y0031174D01*
X0110511Y0031138D01*
X0110629Y0031098D01*
X0110746Y0031054D01*
X0110861Y0031007D01*
X0110974Y0030956D01*
X0111086Y0030901D01*
X0111196Y0030843D01*
X0111304Y0030782D01*
X0111410Y0030717D01*
X0111514Y0030648D01*
X0111615Y0030577D01*
X0111715Y0030502D01*
X0111812Y0030424D01*
X0111906Y0030343D01*
X0111998Y0030259D01*
X0112087Y0030172D01*
X0112173Y0030082D01*
X0112256Y0029990D01*
X0112336Y0029895D01*
X0112414Y0029797D01*
X0112488Y0029697D01*
X0112559Y0029595D01*
X0112626Y0029491D01*
X0112690Y0029384D01*
X0112751Y0029275D01*
X0112808Y0029165D01*
X0112862Y0029053D01*
X0112912Y0028939D01*
X0112959Y0028824D01*
X0113001Y0028707D01*
X0113040Y0028589D01*
X0113076Y0028469D01*
X0113107Y0028349D01*
X0113134Y0028228D01*
X0113158Y0028106D01*
X0113178Y0027983D01*
X0113194Y0027859D01*
X0113206Y0027736D01*
X0113214Y0027612D01*
X0113218Y0027487D01*
X0113218Y0027363D01*
X0113214Y0027238D01*
X0113206Y0027114D01*
X0113194Y0026991D01*
X0113178Y0026867D01*
X0113158Y0026744D01*
X0113134Y0026622D01*
X0113107Y0026501D01*
X0113076Y0026381D01*
X0113040Y0026261D01*
X0113001Y0026143D01*
X0112959Y0026026D01*
X0112912Y0025911D01*
X0112862Y0025797D01*
X0112808Y0025685D01*
X0112751Y0025575D01*
X0112690Y0025466D01*
X0112626Y0025359D01*
X0112559Y0025255D01*
X0112488Y0025153D01*
X0112414Y0025053D01*
X0112336Y0024955D01*
X0112256Y0024860D01*
X0112173Y0024768D01*
X0112087Y0024678D01*
X0111998Y0024591D01*
X0111906Y0024507D01*
X0111812Y0024426D01*
X0111715Y0024348D01*
X0111615Y0024273D01*
X0111514Y0024202D01*
X0111410Y0024133D01*
X0111304Y0024068D01*
X0111196Y0024007D01*
X0111086Y0023949D01*
X0110974Y0023894D01*
X0110861Y0023843D01*
X0110746Y0023796D01*
X0110629Y0023752D01*
X0110511Y0023712D01*
X0110392Y0023676D01*
X0110272Y0023644D01*
X0110151Y0023615D01*
X0110029Y0023590D01*
X0109907Y0023570D01*
X0109783Y0023553D01*
X0109660Y0023540D01*
X0109536Y0023531D01*
X0109411Y0023526D01*
X0109287Y0023525D01*
X0109163Y0023528D01*
X0109038Y0023535D01*
X0108914Y0023546D01*
X0108791Y0023561D01*
X0108668Y0023580D01*
X0108546Y0023602D01*
X0108424Y0023629D01*
X0108304Y0023659D01*
X0108184Y0023693D01*
X0108066Y0023732D01*
X0107948Y0023773D01*
X0107833Y0023819D01*
X0107718Y0023868D01*
X0107606Y0023921D01*
X0107495Y0023977D01*
X0107386Y0024037D01*
X0107279Y0024101D01*
X0107174Y0024167D01*
X0107071Y0024237D01*
X0106971Y0024311D01*
X0106873Y0024387D01*
X0106777Y0024466D01*
X0106684Y0024549D01*
X0106593Y0024634D01*
X0106506Y0024723D01*
X0106421Y0024814D01*
X0106339Y0024908D01*
X0106261Y0025004D01*
X0106185Y0025103D01*
X0106112Y0025204D01*
X0106043Y0025307D01*
X0105977Y0025413D01*
X0105915Y0025520D01*
X0105856Y0025630D01*
X0105800Y0025741D01*
X0105748Y0025854D01*
X0105700Y0025969D01*
X0105656Y0026085D01*
X0105615Y0026202D01*
X0105578Y0026321D01*
X0105544Y0026441D01*
X0105515Y0026561D01*
X0105489Y0026683D01*
X0105467Y0026806D01*
X0105450Y0026929D01*
X0105436Y0027052D01*
X0105426Y0027176D01*
X0105420Y0027301D01*
X0105418Y0027425D01*
X0105318Y0023425D02*
X0113318Y0031425D01*
X0120743Y0008675D02*
X0128743Y0008675D01*
X0124743Y0004675D02*
X0124743Y0012675D01*
X0103743Y0008675D02*
X0095743Y0008675D01*
X0099743Y0004675D02*
X0099743Y0012675D01*
X0098743Y0008675D02*
X0090743Y0008675D01*
X0094743Y0004675D02*
X0094743Y0012675D01*
X0093743Y0008675D02*
X0085743Y0008675D01*
X0089743Y0004675D02*
X0089743Y0012675D01*
X0088743Y0008675D02*
X0080743Y0008675D01*
X0084743Y0004675D02*
X0084743Y0012675D01*
X0083743Y0008675D02*
X0075743Y0008675D01*
X0079743Y0004675D02*
X0079743Y0012675D01*
X0078743Y0008675D02*
X0070743Y0008675D01*
X0074743Y0004675D02*
X0074743Y0012675D01*
X0073743Y0008675D02*
X0065743Y0008675D01*
X0069743Y0004675D02*
X0069743Y0012675D01*
X0068743Y0008675D02*
X0060743Y0008675D01*
X0064743Y0004675D02*
X0064743Y0012675D01*
X0053743Y0008675D02*
X0045743Y0008675D01*
X0049743Y0004675D02*
X0049743Y0012675D01*
X0042493Y0026175D02*
X0034493Y0026175D01*
X0038493Y0022175D02*
X0038493Y0030175D01*
X0048843Y0027425D02*
X0048845Y0027549D01*
X0048851Y0027674D01*
X0048861Y0027798D01*
X0048875Y0027921D01*
X0048892Y0028044D01*
X0048914Y0028167D01*
X0048940Y0028289D01*
X0048969Y0028409D01*
X0049003Y0028529D01*
X0049040Y0028648D01*
X0049081Y0028765D01*
X0049125Y0028881D01*
X0049173Y0028996D01*
X0049225Y0029109D01*
X0049281Y0029220D01*
X0049340Y0029330D01*
X0049402Y0029437D01*
X0049468Y0029543D01*
X0049537Y0029646D01*
X0049610Y0029747D01*
X0049686Y0029846D01*
X0049764Y0029942D01*
X0049846Y0030036D01*
X0049931Y0030127D01*
X0050018Y0030216D01*
X0050109Y0030301D01*
X0050202Y0030384D01*
X0050298Y0030463D01*
X0050396Y0030539D01*
X0050496Y0030613D01*
X0050599Y0030683D01*
X0050704Y0030749D01*
X0050811Y0030813D01*
X0050920Y0030873D01*
X0051031Y0030929D01*
X0051143Y0030982D01*
X0051258Y0031031D01*
X0051373Y0031077D01*
X0051491Y0031118D01*
X0051609Y0031157D01*
X0051729Y0031191D01*
X0051849Y0031221D01*
X0051971Y0031248D01*
X0052093Y0031270D01*
X0052216Y0031289D01*
X0052339Y0031304D01*
X0052463Y0031315D01*
X0052588Y0031322D01*
X0052712Y0031325D01*
X0052836Y0031324D01*
X0052961Y0031319D01*
X0053085Y0031310D01*
X0053208Y0031297D01*
X0053332Y0031280D01*
X0053454Y0031260D01*
X0053576Y0031235D01*
X0053697Y0031206D01*
X0053817Y0031174D01*
X0053936Y0031138D01*
X0054054Y0031098D01*
X0054171Y0031054D01*
X0054286Y0031007D01*
X0054399Y0030956D01*
X0054511Y0030901D01*
X0054621Y0030843D01*
X0054729Y0030782D01*
X0054835Y0030717D01*
X0054939Y0030648D01*
X0055040Y0030577D01*
X0055140Y0030502D01*
X0055237Y0030424D01*
X0055331Y0030343D01*
X0055423Y0030259D01*
X0055512Y0030172D01*
X0055598Y0030082D01*
X0055681Y0029990D01*
X0055761Y0029895D01*
X0055839Y0029797D01*
X0055913Y0029697D01*
X0055984Y0029595D01*
X0056051Y0029491D01*
X0056115Y0029384D01*
X0056176Y0029275D01*
X0056233Y0029165D01*
X0056287Y0029053D01*
X0056337Y0028939D01*
X0056384Y0028824D01*
X0056426Y0028707D01*
X0056465Y0028589D01*
X0056501Y0028469D01*
X0056532Y0028349D01*
X0056559Y0028228D01*
X0056583Y0028106D01*
X0056603Y0027983D01*
X0056619Y0027859D01*
X0056631Y0027736D01*
X0056639Y0027612D01*
X0056643Y0027487D01*
X0056643Y0027363D01*
X0056639Y0027238D01*
X0056631Y0027114D01*
X0056619Y0026991D01*
X0056603Y0026867D01*
X0056583Y0026744D01*
X0056559Y0026622D01*
X0056532Y0026501D01*
X0056501Y0026381D01*
X0056465Y0026261D01*
X0056426Y0026143D01*
X0056384Y0026026D01*
X0056337Y0025911D01*
X0056287Y0025797D01*
X0056233Y0025685D01*
X0056176Y0025575D01*
X0056115Y0025466D01*
X0056051Y0025359D01*
X0055984Y0025255D01*
X0055913Y0025153D01*
X0055839Y0025053D01*
X0055761Y0024955D01*
X0055681Y0024860D01*
X0055598Y0024768D01*
X0055512Y0024678D01*
X0055423Y0024591D01*
X0055331Y0024507D01*
X0055237Y0024426D01*
X0055140Y0024348D01*
X0055040Y0024273D01*
X0054939Y0024202D01*
X0054835Y0024133D01*
X0054729Y0024068D01*
X0054621Y0024007D01*
X0054511Y0023949D01*
X0054399Y0023894D01*
X0054286Y0023843D01*
X0054171Y0023796D01*
X0054054Y0023752D01*
X0053936Y0023712D01*
X0053817Y0023676D01*
X0053697Y0023644D01*
X0053576Y0023615D01*
X0053454Y0023590D01*
X0053332Y0023570D01*
X0053208Y0023553D01*
X0053085Y0023540D01*
X0052961Y0023531D01*
X0052836Y0023526D01*
X0052712Y0023525D01*
X0052588Y0023528D01*
X0052463Y0023535D01*
X0052339Y0023546D01*
X0052216Y0023561D01*
X0052093Y0023580D01*
X0051971Y0023602D01*
X0051849Y0023629D01*
X0051729Y0023659D01*
X0051609Y0023693D01*
X0051491Y0023732D01*
X0051373Y0023773D01*
X0051258Y0023819D01*
X0051143Y0023868D01*
X0051031Y0023921D01*
X0050920Y0023977D01*
X0050811Y0024037D01*
X0050704Y0024101D01*
X0050599Y0024167D01*
X0050496Y0024237D01*
X0050396Y0024311D01*
X0050298Y0024387D01*
X0050202Y0024466D01*
X0050109Y0024549D01*
X0050018Y0024634D01*
X0049931Y0024723D01*
X0049846Y0024814D01*
X0049764Y0024908D01*
X0049686Y0025004D01*
X0049610Y0025103D01*
X0049537Y0025204D01*
X0049468Y0025307D01*
X0049402Y0025413D01*
X0049340Y0025520D01*
X0049281Y0025630D01*
X0049225Y0025741D01*
X0049173Y0025854D01*
X0049125Y0025969D01*
X0049081Y0026085D01*
X0049040Y0026202D01*
X0049003Y0026321D01*
X0048969Y0026441D01*
X0048940Y0026561D01*
X0048914Y0026683D01*
X0048892Y0026806D01*
X0048875Y0026929D01*
X0048861Y0027052D01*
X0048851Y0027176D01*
X0048845Y0027301D01*
X0048843Y0027425D01*
X0048743Y0023425D02*
X0056743Y0031425D01*
X0066993Y0041800D02*
X0074993Y0041800D01*
X0070993Y0037800D02*
X0070993Y0045800D01*
X0032493Y0008675D02*
X0024493Y0008675D01*
X0028493Y0004675D02*
X0028493Y0012675D01*
X0145118Y0021175D02*
X0153118Y0021175D01*
X0149118Y0017175D02*
X0149118Y0025175D01*
X0145118Y0026175D02*
X0153118Y0026175D01*
X0149118Y0022175D02*
X0149118Y0030175D01*
M02*
