G75*
%MOIN*%
%OFA0B0*%
%FSLAX25Y25*%
%IPPOS*%
%LPD*%
%AMOC8*
5,1,8,0,0,1.08239X$1,22.5*
%
%ADD10C,0.00000*%
D10*
X0006968Y0001800D02*
X0006968Y0103011D01*
X0155668Y0103011D01*
X0155668Y0001800D01*
X0006968Y0001800D01*
X0021993Y0027425D02*
X0021995Y0027537D01*
X0022001Y0027648D01*
X0022011Y0027760D01*
X0022025Y0027871D01*
X0022042Y0027981D01*
X0022064Y0028091D01*
X0022090Y0028200D01*
X0022119Y0028308D01*
X0022152Y0028414D01*
X0022189Y0028520D01*
X0022230Y0028624D01*
X0022275Y0028727D01*
X0022323Y0028828D01*
X0022374Y0028927D01*
X0022429Y0029024D01*
X0022488Y0029119D01*
X0022549Y0029213D01*
X0022614Y0029304D01*
X0022683Y0029392D01*
X0022754Y0029478D01*
X0022828Y0029562D01*
X0022906Y0029642D01*
X0022986Y0029720D01*
X0023069Y0029796D01*
X0023154Y0029868D01*
X0023242Y0029937D01*
X0023332Y0030003D01*
X0023425Y0030065D01*
X0023520Y0030125D01*
X0023617Y0030181D01*
X0023715Y0030233D01*
X0023816Y0030282D01*
X0023918Y0030327D01*
X0024022Y0030369D01*
X0024127Y0030407D01*
X0024234Y0030441D01*
X0024341Y0030471D01*
X0024450Y0030498D01*
X0024559Y0030520D01*
X0024670Y0030539D01*
X0024780Y0030554D01*
X0024892Y0030565D01*
X0025003Y0030572D01*
X0025115Y0030575D01*
X0025227Y0030574D01*
X0025339Y0030569D01*
X0025450Y0030560D01*
X0025561Y0030547D01*
X0025672Y0030530D01*
X0025782Y0030510D01*
X0025891Y0030485D01*
X0025999Y0030457D01*
X0026106Y0030424D01*
X0026212Y0030388D01*
X0026316Y0030348D01*
X0026419Y0030305D01*
X0026521Y0030258D01*
X0026620Y0030207D01*
X0026718Y0030153D01*
X0026814Y0030095D01*
X0026908Y0030034D01*
X0026999Y0029970D01*
X0027088Y0029903D01*
X0027175Y0029832D01*
X0027259Y0029758D01*
X0027341Y0029682D01*
X0027419Y0029602D01*
X0027495Y0029520D01*
X0027568Y0029435D01*
X0027638Y0029348D01*
X0027704Y0029258D01*
X0027768Y0029166D01*
X0027828Y0029072D01*
X0027885Y0028976D01*
X0027938Y0028877D01*
X0027988Y0028777D01*
X0028034Y0028676D01*
X0028077Y0028572D01*
X0028116Y0028467D01*
X0028151Y0028361D01*
X0028182Y0028254D01*
X0028210Y0028145D01*
X0028233Y0028036D01*
X0028253Y0027926D01*
X0028269Y0027815D01*
X0028281Y0027704D01*
X0028289Y0027593D01*
X0028293Y0027481D01*
X0028293Y0027369D01*
X0028289Y0027257D01*
X0028281Y0027146D01*
X0028269Y0027035D01*
X0028253Y0026924D01*
X0028233Y0026814D01*
X0028210Y0026705D01*
X0028182Y0026596D01*
X0028151Y0026489D01*
X0028116Y0026383D01*
X0028077Y0026278D01*
X0028034Y0026174D01*
X0027988Y0026073D01*
X0027938Y0025973D01*
X0027885Y0025874D01*
X0027828Y0025778D01*
X0027768Y0025684D01*
X0027704Y0025592D01*
X0027638Y0025502D01*
X0027568Y0025415D01*
X0027495Y0025330D01*
X0027419Y0025248D01*
X0027341Y0025168D01*
X0027259Y0025092D01*
X0027175Y0025018D01*
X0027088Y0024947D01*
X0026999Y0024880D01*
X0026908Y0024816D01*
X0026814Y0024755D01*
X0026718Y0024697D01*
X0026620Y0024643D01*
X0026521Y0024592D01*
X0026419Y0024545D01*
X0026316Y0024502D01*
X0026212Y0024462D01*
X0026106Y0024426D01*
X0025999Y0024393D01*
X0025891Y0024365D01*
X0025782Y0024340D01*
X0025672Y0024320D01*
X0025561Y0024303D01*
X0025450Y0024290D01*
X0025339Y0024281D01*
X0025227Y0024276D01*
X0025115Y0024275D01*
X0025003Y0024278D01*
X0024892Y0024285D01*
X0024780Y0024296D01*
X0024670Y0024311D01*
X0024559Y0024330D01*
X0024450Y0024352D01*
X0024341Y0024379D01*
X0024234Y0024409D01*
X0024127Y0024443D01*
X0024022Y0024481D01*
X0023918Y0024523D01*
X0023816Y0024568D01*
X0023715Y0024617D01*
X0023617Y0024669D01*
X0023520Y0024725D01*
X0023425Y0024785D01*
X0023332Y0024847D01*
X0023242Y0024913D01*
X0023154Y0024982D01*
X0023069Y0025054D01*
X0022986Y0025130D01*
X0022906Y0025208D01*
X0022828Y0025288D01*
X0022754Y0025372D01*
X0022683Y0025458D01*
X0022614Y0025546D01*
X0022549Y0025637D01*
X0022488Y0025731D01*
X0022429Y0025826D01*
X0022374Y0025923D01*
X0022323Y0026022D01*
X0022275Y0026123D01*
X0022230Y0026226D01*
X0022189Y0026330D01*
X0022152Y0026436D01*
X0022119Y0026542D01*
X0022090Y0026650D01*
X0022064Y0026759D01*
X0022042Y0026869D01*
X0022025Y0026979D01*
X0022011Y0027090D01*
X0022001Y0027202D01*
X0021995Y0027313D01*
X0021993Y0027425D01*
X0049593Y0027425D02*
X0049595Y0027537D01*
X0049601Y0027648D01*
X0049611Y0027760D01*
X0049625Y0027871D01*
X0049642Y0027981D01*
X0049664Y0028091D01*
X0049690Y0028200D01*
X0049719Y0028308D01*
X0049752Y0028414D01*
X0049789Y0028520D01*
X0049830Y0028624D01*
X0049875Y0028727D01*
X0049923Y0028828D01*
X0049974Y0028927D01*
X0050029Y0029024D01*
X0050088Y0029119D01*
X0050149Y0029213D01*
X0050214Y0029304D01*
X0050283Y0029392D01*
X0050354Y0029478D01*
X0050428Y0029562D01*
X0050506Y0029642D01*
X0050586Y0029720D01*
X0050669Y0029796D01*
X0050754Y0029868D01*
X0050842Y0029937D01*
X0050932Y0030003D01*
X0051025Y0030065D01*
X0051120Y0030125D01*
X0051217Y0030181D01*
X0051315Y0030233D01*
X0051416Y0030282D01*
X0051518Y0030327D01*
X0051622Y0030369D01*
X0051727Y0030407D01*
X0051834Y0030441D01*
X0051941Y0030471D01*
X0052050Y0030498D01*
X0052159Y0030520D01*
X0052270Y0030539D01*
X0052380Y0030554D01*
X0052492Y0030565D01*
X0052603Y0030572D01*
X0052715Y0030575D01*
X0052827Y0030574D01*
X0052939Y0030569D01*
X0053050Y0030560D01*
X0053161Y0030547D01*
X0053272Y0030530D01*
X0053382Y0030510D01*
X0053491Y0030485D01*
X0053599Y0030457D01*
X0053706Y0030424D01*
X0053812Y0030388D01*
X0053916Y0030348D01*
X0054019Y0030305D01*
X0054121Y0030258D01*
X0054220Y0030207D01*
X0054318Y0030153D01*
X0054414Y0030095D01*
X0054508Y0030034D01*
X0054599Y0029970D01*
X0054688Y0029903D01*
X0054775Y0029832D01*
X0054859Y0029758D01*
X0054941Y0029682D01*
X0055019Y0029602D01*
X0055095Y0029520D01*
X0055168Y0029435D01*
X0055238Y0029348D01*
X0055304Y0029258D01*
X0055368Y0029166D01*
X0055428Y0029072D01*
X0055485Y0028976D01*
X0055538Y0028877D01*
X0055588Y0028777D01*
X0055634Y0028676D01*
X0055677Y0028572D01*
X0055716Y0028467D01*
X0055751Y0028361D01*
X0055782Y0028254D01*
X0055810Y0028145D01*
X0055833Y0028036D01*
X0055853Y0027926D01*
X0055869Y0027815D01*
X0055881Y0027704D01*
X0055889Y0027593D01*
X0055893Y0027481D01*
X0055893Y0027369D01*
X0055889Y0027257D01*
X0055881Y0027146D01*
X0055869Y0027035D01*
X0055853Y0026924D01*
X0055833Y0026814D01*
X0055810Y0026705D01*
X0055782Y0026596D01*
X0055751Y0026489D01*
X0055716Y0026383D01*
X0055677Y0026278D01*
X0055634Y0026174D01*
X0055588Y0026073D01*
X0055538Y0025973D01*
X0055485Y0025874D01*
X0055428Y0025778D01*
X0055368Y0025684D01*
X0055304Y0025592D01*
X0055238Y0025502D01*
X0055168Y0025415D01*
X0055095Y0025330D01*
X0055019Y0025248D01*
X0054941Y0025168D01*
X0054859Y0025092D01*
X0054775Y0025018D01*
X0054688Y0024947D01*
X0054599Y0024880D01*
X0054508Y0024816D01*
X0054414Y0024755D01*
X0054318Y0024697D01*
X0054220Y0024643D01*
X0054121Y0024592D01*
X0054019Y0024545D01*
X0053916Y0024502D01*
X0053812Y0024462D01*
X0053706Y0024426D01*
X0053599Y0024393D01*
X0053491Y0024365D01*
X0053382Y0024340D01*
X0053272Y0024320D01*
X0053161Y0024303D01*
X0053050Y0024290D01*
X0052939Y0024281D01*
X0052827Y0024276D01*
X0052715Y0024275D01*
X0052603Y0024278D01*
X0052492Y0024285D01*
X0052380Y0024296D01*
X0052270Y0024311D01*
X0052159Y0024330D01*
X0052050Y0024352D01*
X0051941Y0024379D01*
X0051834Y0024409D01*
X0051727Y0024443D01*
X0051622Y0024481D01*
X0051518Y0024523D01*
X0051416Y0024568D01*
X0051315Y0024617D01*
X0051217Y0024669D01*
X0051120Y0024725D01*
X0051025Y0024785D01*
X0050932Y0024847D01*
X0050842Y0024913D01*
X0050754Y0024982D01*
X0050669Y0025054D01*
X0050586Y0025130D01*
X0050506Y0025208D01*
X0050428Y0025288D01*
X0050354Y0025372D01*
X0050283Y0025458D01*
X0050214Y0025546D01*
X0050149Y0025637D01*
X0050088Y0025731D01*
X0050029Y0025826D01*
X0049974Y0025923D01*
X0049923Y0026022D01*
X0049875Y0026123D01*
X0049830Y0026226D01*
X0049789Y0026330D01*
X0049752Y0026436D01*
X0049719Y0026542D01*
X0049690Y0026650D01*
X0049664Y0026759D01*
X0049642Y0026869D01*
X0049625Y0026979D01*
X0049611Y0027090D01*
X0049601Y0027202D01*
X0049595Y0027313D01*
X0049593Y0027425D01*
X0106168Y0027425D02*
X0106170Y0027537D01*
X0106176Y0027648D01*
X0106186Y0027760D01*
X0106200Y0027871D01*
X0106217Y0027981D01*
X0106239Y0028091D01*
X0106265Y0028200D01*
X0106294Y0028308D01*
X0106327Y0028414D01*
X0106364Y0028520D01*
X0106405Y0028624D01*
X0106450Y0028727D01*
X0106498Y0028828D01*
X0106549Y0028927D01*
X0106604Y0029024D01*
X0106663Y0029119D01*
X0106724Y0029213D01*
X0106789Y0029304D01*
X0106858Y0029392D01*
X0106929Y0029478D01*
X0107003Y0029562D01*
X0107081Y0029642D01*
X0107161Y0029720D01*
X0107244Y0029796D01*
X0107329Y0029868D01*
X0107417Y0029937D01*
X0107507Y0030003D01*
X0107600Y0030065D01*
X0107695Y0030125D01*
X0107792Y0030181D01*
X0107890Y0030233D01*
X0107991Y0030282D01*
X0108093Y0030327D01*
X0108197Y0030369D01*
X0108302Y0030407D01*
X0108409Y0030441D01*
X0108516Y0030471D01*
X0108625Y0030498D01*
X0108734Y0030520D01*
X0108845Y0030539D01*
X0108955Y0030554D01*
X0109067Y0030565D01*
X0109178Y0030572D01*
X0109290Y0030575D01*
X0109402Y0030574D01*
X0109514Y0030569D01*
X0109625Y0030560D01*
X0109736Y0030547D01*
X0109847Y0030530D01*
X0109957Y0030510D01*
X0110066Y0030485D01*
X0110174Y0030457D01*
X0110281Y0030424D01*
X0110387Y0030388D01*
X0110491Y0030348D01*
X0110594Y0030305D01*
X0110696Y0030258D01*
X0110795Y0030207D01*
X0110893Y0030153D01*
X0110989Y0030095D01*
X0111083Y0030034D01*
X0111174Y0029970D01*
X0111263Y0029903D01*
X0111350Y0029832D01*
X0111434Y0029758D01*
X0111516Y0029682D01*
X0111594Y0029602D01*
X0111670Y0029520D01*
X0111743Y0029435D01*
X0111813Y0029348D01*
X0111879Y0029258D01*
X0111943Y0029166D01*
X0112003Y0029072D01*
X0112060Y0028976D01*
X0112113Y0028877D01*
X0112163Y0028777D01*
X0112209Y0028676D01*
X0112252Y0028572D01*
X0112291Y0028467D01*
X0112326Y0028361D01*
X0112357Y0028254D01*
X0112385Y0028145D01*
X0112408Y0028036D01*
X0112428Y0027926D01*
X0112444Y0027815D01*
X0112456Y0027704D01*
X0112464Y0027593D01*
X0112468Y0027481D01*
X0112468Y0027369D01*
X0112464Y0027257D01*
X0112456Y0027146D01*
X0112444Y0027035D01*
X0112428Y0026924D01*
X0112408Y0026814D01*
X0112385Y0026705D01*
X0112357Y0026596D01*
X0112326Y0026489D01*
X0112291Y0026383D01*
X0112252Y0026278D01*
X0112209Y0026174D01*
X0112163Y0026073D01*
X0112113Y0025973D01*
X0112060Y0025874D01*
X0112003Y0025778D01*
X0111943Y0025684D01*
X0111879Y0025592D01*
X0111813Y0025502D01*
X0111743Y0025415D01*
X0111670Y0025330D01*
X0111594Y0025248D01*
X0111516Y0025168D01*
X0111434Y0025092D01*
X0111350Y0025018D01*
X0111263Y0024947D01*
X0111174Y0024880D01*
X0111083Y0024816D01*
X0110989Y0024755D01*
X0110893Y0024697D01*
X0110795Y0024643D01*
X0110696Y0024592D01*
X0110594Y0024545D01*
X0110491Y0024502D01*
X0110387Y0024462D01*
X0110281Y0024426D01*
X0110174Y0024393D01*
X0110066Y0024365D01*
X0109957Y0024340D01*
X0109847Y0024320D01*
X0109736Y0024303D01*
X0109625Y0024290D01*
X0109514Y0024281D01*
X0109402Y0024276D01*
X0109290Y0024275D01*
X0109178Y0024278D01*
X0109067Y0024285D01*
X0108955Y0024296D01*
X0108845Y0024311D01*
X0108734Y0024330D01*
X0108625Y0024352D01*
X0108516Y0024379D01*
X0108409Y0024409D01*
X0108302Y0024443D01*
X0108197Y0024481D01*
X0108093Y0024523D01*
X0107991Y0024568D01*
X0107890Y0024617D01*
X0107792Y0024669D01*
X0107695Y0024725D01*
X0107600Y0024785D01*
X0107507Y0024847D01*
X0107417Y0024913D01*
X0107329Y0024982D01*
X0107244Y0025054D01*
X0107161Y0025130D01*
X0107081Y0025208D01*
X0107003Y0025288D01*
X0106929Y0025372D01*
X0106858Y0025458D01*
X0106789Y0025546D01*
X0106724Y0025637D01*
X0106663Y0025731D01*
X0106604Y0025826D01*
X0106549Y0025923D01*
X0106498Y0026022D01*
X0106450Y0026123D01*
X0106405Y0026226D01*
X0106364Y0026330D01*
X0106327Y0026436D01*
X0106294Y0026542D01*
X0106265Y0026650D01*
X0106239Y0026759D01*
X0106217Y0026869D01*
X0106200Y0026979D01*
X0106186Y0027090D01*
X0106176Y0027202D01*
X0106170Y0027313D01*
X0106168Y0027425D01*
X0133768Y0027425D02*
X0133770Y0027537D01*
X0133776Y0027648D01*
X0133786Y0027760D01*
X0133800Y0027871D01*
X0133817Y0027981D01*
X0133839Y0028091D01*
X0133865Y0028200D01*
X0133894Y0028308D01*
X0133927Y0028414D01*
X0133964Y0028520D01*
X0134005Y0028624D01*
X0134050Y0028727D01*
X0134098Y0028828D01*
X0134149Y0028927D01*
X0134204Y0029024D01*
X0134263Y0029119D01*
X0134324Y0029213D01*
X0134389Y0029304D01*
X0134458Y0029392D01*
X0134529Y0029478D01*
X0134603Y0029562D01*
X0134681Y0029642D01*
X0134761Y0029720D01*
X0134844Y0029796D01*
X0134929Y0029868D01*
X0135017Y0029937D01*
X0135107Y0030003D01*
X0135200Y0030065D01*
X0135295Y0030125D01*
X0135392Y0030181D01*
X0135490Y0030233D01*
X0135591Y0030282D01*
X0135693Y0030327D01*
X0135797Y0030369D01*
X0135902Y0030407D01*
X0136009Y0030441D01*
X0136116Y0030471D01*
X0136225Y0030498D01*
X0136334Y0030520D01*
X0136445Y0030539D01*
X0136555Y0030554D01*
X0136667Y0030565D01*
X0136778Y0030572D01*
X0136890Y0030575D01*
X0137002Y0030574D01*
X0137114Y0030569D01*
X0137225Y0030560D01*
X0137336Y0030547D01*
X0137447Y0030530D01*
X0137557Y0030510D01*
X0137666Y0030485D01*
X0137774Y0030457D01*
X0137881Y0030424D01*
X0137987Y0030388D01*
X0138091Y0030348D01*
X0138194Y0030305D01*
X0138296Y0030258D01*
X0138395Y0030207D01*
X0138493Y0030153D01*
X0138589Y0030095D01*
X0138683Y0030034D01*
X0138774Y0029970D01*
X0138863Y0029903D01*
X0138950Y0029832D01*
X0139034Y0029758D01*
X0139116Y0029682D01*
X0139194Y0029602D01*
X0139270Y0029520D01*
X0139343Y0029435D01*
X0139413Y0029348D01*
X0139479Y0029258D01*
X0139543Y0029166D01*
X0139603Y0029072D01*
X0139660Y0028976D01*
X0139713Y0028877D01*
X0139763Y0028777D01*
X0139809Y0028676D01*
X0139852Y0028572D01*
X0139891Y0028467D01*
X0139926Y0028361D01*
X0139957Y0028254D01*
X0139985Y0028145D01*
X0140008Y0028036D01*
X0140028Y0027926D01*
X0140044Y0027815D01*
X0140056Y0027704D01*
X0140064Y0027593D01*
X0140068Y0027481D01*
X0140068Y0027369D01*
X0140064Y0027257D01*
X0140056Y0027146D01*
X0140044Y0027035D01*
X0140028Y0026924D01*
X0140008Y0026814D01*
X0139985Y0026705D01*
X0139957Y0026596D01*
X0139926Y0026489D01*
X0139891Y0026383D01*
X0139852Y0026278D01*
X0139809Y0026174D01*
X0139763Y0026073D01*
X0139713Y0025973D01*
X0139660Y0025874D01*
X0139603Y0025778D01*
X0139543Y0025684D01*
X0139479Y0025592D01*
X0139413Y0025502D01*
X0139343Y0025415D01*
X0139270Y0025330D01*
X0139194Y0025248D01*
X0139116Y0025168D01*
X0139034Y0025092D01*
X0138950Y0025018D01*
X0138863Y0024947D01*
X0138774Y0024880D01*
X0138683Y0024816D01*
X0138589Y0024755D01*
X0138493Y0024697D01*
X0138395Y0024643D01*
X0138296Y0024592D01*
X0138194Y0024545D01*
X0138091Y0024502D01*
X0137987Y0024462D01*
X0137881Y0024426D01*
X0137774Y0024393D01*
X0137666Y0024365D01*
X0137557Y0024340D01*
X0137447Y0024320D01*
X0137336Y0024303D01*
X0137225Y0024290D01*
X0137114Y0024281D01*
X0137002Y0024276D01*
X0136890Y0024275D01*
X0136778Y0024278D01*
X0136667Y0024285D01*
X0136555Y0024296D01*
X0136445Y0024311D01*
X0136334Y0024330D01*
X0136225Y0024352D01*
X0136116Y0024379D01*
X0136009Y0024409D01*
X0135902Y0024443D01*
X0135797Y0024481D01*
X0135693Y0024523D01*
X0135591Y0024568D01*
X0135490Y0024617D01*
X0135392Y0024669D01*
X0135295Y0024725D01*
X0135200Y0024785D01*
X0135107Y0024847D01*
X0135017Y0024913D01*
X0134929Y0024982D01*
X0134844Y0025054D01*
X0134761Y0025130D01*
X0134681Y0025208D01*
X0134603Y0025288D01*
X0134529Y0025372D01*
X0134458Y0025458D01*
X0134389Y0025546D01*
X0134324Y0025637D01*
X0134263Y0025731D01*
X0134204Y0025826D01*
X0134149Y0025923D01*
X0134098Y0026022D01*
X0134050Y0026123D01*
X0134005Y0026226D01*
X0133964Y0026330D01*
X0133927Y0026436D01*
X0133894Y0026542D01*
X0133865Y0026650D01*
X0133839Y0026759D01*
X0133817Y0026869D01*
X0133800Y0026979D01*
X0133786Y0027090D01*
X0133776Y0027202D01*
X0133770Y0027313D01*
X0133768Y0027425D01*
M02*
